<svg viewBox="-477,-400,954,800" xmlns="http://www.w3.org/2000/svg" xmlns:xlink="http://www.w3.org/1999/xlink"><g><line stroke="#D16666" stroke-width="8" x1="158.59527559890543" y1="-17.64665962726513" x2="180.95173701642074" y2="-37.5949210202483"/><line stroke="#D16666" stroke-width="8" x1="158.59527559890543" y1="-17.64665962726513" x2="141.03101217012036" y2="-42.122191042611156"/><line stroke="#D16666" stroke-width="8" x1="-119.19772740753363" y1="16.468572380379708" x2="-147.22069592811826" y2="5.849982409640476"/><line stroke="#B6C649" stroke-width="8" x1="-137.62817254853906" y1="-199.42219676878028" x2="-107.06799134322527" y2="-205.03182216695467"/><line stroke="#B6C649" stroke-width="8" x1="-137.62817254853906" y1="-199.42219676878028" x2="-136.29220766773412" y2="-168.25439870483842"/><line stroke="#B6C649" stroke-width="8" x1="-137.62817254853906" y1="-199.42219676878028" x2="-121.84334495384034" y2="-226.52335775497014"/><line stroke="#B6C649" stroke-width="8" x1="-137.62817254853906" y1="-199.42219676878028" x2="-167.75481648467596" y2="-202.64681720620138"/><line stroke="#B6C649" stroke-width="8" x1="-137.62817254853906" y1="-199.42219676878028" x2="-113.3576564188763" y2="-180.23899096213913"/><line stroke="#B6C649" stroke-width="8" x1="-137.62817254853906" y1="-199.42219676878028" x2="-160.2827666057412" y2="-176.45970500205084"/><line stroke="#D16666" stroke-width="8" x1="-160.2827666057412" y1="-176.45970500205084" x2="-190.11864865323628" y2="-171.39534968492097"/><line stroke="#D16666" stroke-width="8" x1="-121.84334495384034" y1="-226.52335775497014" x2="-92.21239678692207" y2="-234.61856585175886"/><line stroke="#D16666" stroke-width="8" x1="16.052000800883622" y1="110.92959925968205" x2="11.083372462261261" y2="140.61170099945505"/><line stroke="#D16666" stroke-width="8" x1="16.052000800883622" y1="110.92959925968205" x2="40.61439067230297" y2="128.96877079304647"/><line stroke="#D16666" stroke-width="8" x1="16.052000800883622" y1="110.92959925968205" x2="19.52423360025915" y2="80.90183693458336"/><line stroke="#B6C649" stroke-width="8" x1="19.52423360025915" y1="80.90183693458336" x2="30.893130707934223" y2="52.36126752612484"/><line stroke="#B6C649" stroke-width="8" x1="19.52423360025915" y1="80.90183693458336" x2="46.643662954160526" y2="96.32746765361112"/><line stroke="#B6C649" stroke-width="8" x1="19.52423360025915" y1="80.90183693458336" x2="48.18431048939056" y2="69.32833812826391"/><line stroke="#B6C649" stroke-width="8" x1="19.52423360025915" y1="80.90183693458336" x2="-9.836527564086579" y2="84.36471613959387"/><line stroke="#D16666" stroke-width="8" x1="46.643662954160526" y1="96.32746765361112" x2="74.67423159480896" y2="107.91424449611819"/><line stroke="#B6C649" stroke-width="8" x1="-216.1820953990266" y1="0.9982899439056423" x2="-186.73292881469226" y2="6.5081808802672345"/><line stroke="#B6C649" stroke-width="8" x1="70.45380193022842" y1="-13.494471576343487" x2="93.1927229302489" y2="7.672787873697612"/><line stroke="#B6C649" stroke-width="8" x1="70.45380193022842" y1="-13.494471576343487" x2="51.59397619054788" y2="-37.37855546107115"/><line stroke="#B6C649" stroke-width="8" x1="93.1927229302489" y1="7.672787873697612" x2="65.72472869416161" y2="21.053677401709127"/><line stroke="#B6C649" stroke-width="8" x1="-225.23055558879338" y1="51.6262765144084" x2="-253.24886831703273" y2="39.61784576259119"/><line stroke="#D16666" stroke-width="8" x1="165.83421734498432" y1="-120.92611716416381" x2="195.51203744889375" y2="-115.79967713779013"/><line stroke="#D16666" stroke-width="8" x1="-23.30605502086741" y1="109.7958478754364" x2="-17.581189563285626" y2="139.07644449488768"/><line stroke="#D16666" stroke-width="8" x1="-20.331519390308767" y1="-225.80610868364462" x2="-50.18456639008494" y2="-235.96334680080702"/><line stroke="#B6C649" stroke-width="8" x1="-20.331519390308767" y1="-225.80610868364462" x2="5.680428077878941" y2="-208.93841516386266"/><line stroke="#B6C649" stroke-width="8" x1="-20.331519390308767" y1="-225.80610868364462" x2="-49.30267008675095" y2="-215.36687010322024"/><line stroke="#B6C649" stroke-width="8" x1="-20.331519390308767" y1="-225.80610868364462" x2="-10.96575638906763" y2="-256.1351102941372"/><line stroke="#B6C649" stroke-width="8" x1="-20.331519390308767" y1="-225.80610868364462" x2="9.87966047438677" y2="-231.92151078745678"/><line stroke="#2C4251" stroke-width="8" x1="-20.331519390308767" y1="-225.80610868364462" x2="-17.805726921302828" y2="-195.19930412885273"/><line stroke="#D16666" stroke-width="8" x1="-10.96575638906763" y1="-256.1351102941372" x2="-41.62543641992661" y2="-259.2361639518905"/><line stroke="#D16666" stroke-width="8" x1="-10.96575638906763" y1="-256.1351102941372" x2="19.86936760766633" y2="-258.42530414934254"/><line stroke="#D16666" stroke-width="8" x1="-111.36031723629813" y1="120.04084858523913" x2="-137.17072903061714" y2="103.09015375883041"/><line stroke="#B6C649" stroke-width="8" x1="-190.9897664818559" y1="-120.42708260468295" x2="-175.63446983605363" y2="-94.65043003847191"/><line stroke="#B6C649" stroke-width="8" x1="-190.9897664818559" y1="-120.42708260468295" x2="-205.3669907117614" y2="-146.95832738119782"/><line stroke="#B6C649" stroke-width="8" x1="-190.9897664818559" y1="-120.42708260468295" x2="-168.8962239686805" y2="-140.8758414958561"/><line stroke="#2C4251" stroke-width="8" x1="-175.63446983605363" y1="-94.65043003847191" x2="-158.9511398640534" y2="-68.74008733733164"/><line stroke="#D16666" stroke-width="8" x1="211.78300377988427" y1="71.68298479562802" x2="221.74244620937125" y2="43.20301264953046"/><line stroke="#D16666" stroke-width="8" x1="-171.43217875681864" y1="102.63769303260052" x2="-192.19855405382373" y2="122.99409225864181"/><line stroke="#D16666" stroke-width="8" x1="237.23938802077643" y1="-84.3866959527044" x2="250.79175603866085" y2="-57.69029974760605"/><line stroke="#D16666" stroke-width="8" x1="237.23938802077643" y1="-84.3866959527044" x2="207.03364594789215" y2="-83.98344379842733"/><line stroke="#D16666" stroke-width="8" x1="-190.35281150240053" y1="61.42193976568934" x2="-206.64395256688422" y2="86.71375119247628"/><line stroke="#D16666" stroke-width="8" x1="144.71371468879744" y1="-76.95929518099395" x2="136.73249481015063" y2="-106.36299363310637"/><line stroke="#D16666" stroke-width="8" x1="71.13793070093153" y1="165.47907069588462" x2="72.96137892516577" y2="135.66425873569543"/><line stroke="#D16666" stroke-width="8" x1="-205.07097774040193" y1="-28.867872109936794" x2="-234.89450816619643" y2="-27.148606392924385"/><line stroke="#D16666" stroke-width="8" x1="-205.07097774040193" y1="-28.867872109936794" x2="-215.62015424546115" y2="-57.03437632890342"/><line stroke="#D16666" stroke-width="8" x1="39.67246623173954" y1="163.553055774827" x2="9.831388403746196" y2="169.08103799738524"/><line stroke="#B6C649" stroke-width="8" x1="117.4223075920353" y1="226.51073095486294" x2="133.1742995137727" y2="199.52979856191664"/><line stroke="#B6C649" stroke-width="8" x1="117.4223075920353" y1="226.51073095486294" x2="90.57896719555649" y2="240.71488159593736"/><line stroke="#D16666" stroke-width="8" x1="117.4223075920353" y1="226.51073095486294" x2="107.16023818716434" y2="197.74608421307246"/><line stroke="#D16666" stroke-width="8" x1="117.4223075920353" y1="226.51073095486294" x2="147.00991823666416" y2="217.9208280198819"/><line stroke="#D16666" stroke-width="8" x1="-31.960694012608183" y1="-11.466665319577862" x2="-29.76513087839274" y2="18.146491890813003"/><line stroke="#D16666" stroke-width="8" x1="39.07482413761839" y1="228.6408058200278" x2="43.252861716231585" y2="198.675623827632"/><line stroke="#D16666" stroke-width="8" x1="39.07482413761839" y1="228.6408058200278" x2="59.69489698293886" y2="250.23684078480883"/><line stroke="#D16666" stroke-width="8" x1="39.07482413761839" y1="228.6408058200278" x2="23.829023116098984" y2="254.7083083949259"/><line stroke="#D16666" stroke-width="8" x1="106.81980332179657" y1="-206.5502948256805" x2="133.1304888888456" y2="-220.86999027024729"/><line stroke="#D16666" stroke-width="8" x1="143.42412517583736" y1="76.24252090786864" x2="114.461597451165" y2="67.84927404497255"/><line stroke="#D16666" stroke-width="8" x1="-177.50940085050365" y1="33.29525751737858" x2="-207.70607156580627" y2="31.269204381023908"/><line stroke="#D16666" stroke-width="8" x1="95.90266130107207" y1="-25.73429599792069" x2="123.48352698770366" y2="-14.500802030396216"/><line stroke="#2C4251" stroke-width="8" x1="167.05165083814848" y1="8.869594751678635" x2="196.93717401409714" y2="12.534379299710915"/><line stroke="#D16666" stroke-width="8" x1="167.05165083814848" y1="8.869594751678635" x2="136.58944106940785" y2="10.940338252046724"/><line stroke="#D16666" stroke-width="8" x1="141.40010872641628" y1="141.85118379080612" x2="162.98481630563316" y2="163.03187821781117"/><line stroke="#2C4251" stroke-width="8" x1="71.54244945343174" y1="-105.30048325422383" x2="46.64321994198969" y2="-88.73710198348081"/><line stroke="#2C4251" stroke-width="8" x1="71.54244945343174" y1="-105.30048325422383" x2="72.8837552732789" y2="-135.14420412513292"/><line stroke="#D16666" stroke-width="8" x1="102.59098624428643" y1="155.94175564528237" x2="108.62842787752184" y2="126.55966972402797"/><line stroke="#D16666" stroke-width="8" x1="102.59098624428643" y1="155.94175564528237" x2="130.24249621722828" y2="167.80493042473546"/><line stroke="#D16666" stroke-width="8" x1="227.3599758588737" y1="122.87863249752338" x2="234.1919742520992" y2="93.77939264173824"/><line stroke="#B6C649" stroke-width="8" x1="-38.80775390855288" y1="-170.13343648692458" x2="-67.52541153357623" y2="-157.7827419123388"/><line stroke="#B6C649" stroke-width="8" x1="-38.80775390855288" y1="-170.13343648692458" x2="-58.64512789745554" y2="-194.11049853565558"/><line stroke="#B6C649" stroke-width="8" x1="-38.80775390855288" y1="-170.13343648692458" x2="-16.650736264361978" y2="-149.32677780619954"/><line stroke="#B6C649" stroke-width="8" x1="-38.80775390855288" y1="-170.13343648692458" x2="-69.73554381909408" y2="-178.13101660550058"/><line stroke="#D16666" stroke-width="8" x1="-144.06038709459028" y1="175.94854241187238" x2="-124.96320949333888" y2="152.37189688749226"/><line stroke="#B6C649" stroke-width="8" x1="-144.06038709459028" y1="175.94854241187238" x2="-130.54078915269793" y2="203.4749727834317"/><line stroke="#2C4251" stroke-width="8" x1="-144.06038709459028" y1="175.94854241187238" x2="-173.38160120402324" y2="185.04979196020867"/><line stroke="#2C4251" stroke-width="8" x1="-144.06038709459028" y1="175.94854241187238" x2="-154.4066405584138" y2="204.90531893626385"/><line stroke="#D16666" stroke-width="8" x1="-173.38160120402324" y1="185.04979196020867" x2="-197.05354110966925" y2="166.74474219164287"/><line stroke="#D16666" stroke-width="8" x1="-76.76286771714324" y1="39.787823773982375" x2="-58.45246501617122" y2="15.156856339806286"/><line stroke="#D16666" stroke-width="8" x1="70.16515127273094" y1="-178.30151639401817" x2="100.13736566891005" y2="-177.98940853209044"/><line stroke="#2C4251" stroke-width="8" x1="70.94704367298412" y1="217.13865780905402" x2="79.44206069426731" y2="188.40479146804222"/><line stroke="#D16666" stroke-width="8" x1="-244.136699550352" y1="-85.32643878687709" x2="-248.64957207035144" y2="-55.634806158369656"/><line stroke="#B6C649" stroke-width="8" x1="231.5569124840474" y1="-112.99271754939252" x2="215.88199538950448" y2="-138.51908380186987"/><line stroke="#D16666" stroke-width="8" x1="13.829779034098157" y1="195.4419732034791" x2="6.764118881355755" y2="224.26877989282735"/><line stroke="#D16666" stroke-width="8" x1="-82.69863181263389" y1="107.24822538267763" x2="-87.48039567873133" y2="76.70612403616114"/><line stroke="#D16666" stroke-width="8" x1="-82.69863181263389" y1="107.24822538267763" x2="-61.69170190192628" y2="85.20531205195397"/><line stroke="#D16666" stroke-width="8" x1="-82.69863181263389" y1="107.24822538267763" x2="-55.70226733043628" y2="120.50664945300669"/><line stroke="#D16666" stroke-width="8" x1="137.8265414804672" y1="-162.05587057244003" x2="131.7897976708858" y2="-133.1976749214623"/><line stroke="#D16666" stroke-width="8" x1="11.960054749580136" y1="-15.406932291999855" x2="41.736481835721094" y2="-12.206561326251629"/><line stroke="#D16666" stroke-width="8" x1="11.960054749580136" y1="-15.406932291999855" x2="2.6615682321861924" y2="13.009177763380658"/><line stroke="#2C4251" stroke-width="8" x1="75.89286000648708" y1="49.86511569927576" x2="102.52179036024312" y2="35.60463971124364"/><line stroke="#D16666" stroke-width="8" x1="109.02861608254479" y1="-55.14083439117395" x2="78.53687133930391" y2="-52.80177252742518"/><line stroke="#D16666" stroke-width="8" x1="109.02861608254479" y1="-55.14083439117395" x2="88.2571129665816" y2="-77.88782752149773"/><line stroke="#D16666" stroke-width="8" x1="109.02861608254479" y1="-55.14083439117395" x2="115.51618244675787" y2="-84.68317081279342"/><line stroke="#D16666" stroke-width="8" x1="169.97037139744583" y1="130.21829635859902" x2="145.05152720730587" y2="112.51090331477667"/><line stroke="#D16666" stroke-width="8" x1="169.97037139744583" y1="130.21829635859902" x2="200.00514416323995" y2="132.98990292843453"/><line stroke="#D16666" stroke-width="8" x1="43.19229219841904" y1="-206.93624521981053" x2="73.19400486941866" y2="-211.13714941565314"/><line stroke="#D16666" stroke-width="8" x1="43.19229219841904" y1="-206.93624521981053" x2="49.41028228512326" y2="-236.44828470481127"/><line stroke="#B6C649" stroke-width="8" x1="-9.711149026896642" y1="254.87094145271826" x2="-40.22584475167515" y2="259.1531623667364"/><line stroke="#D16666" stroke-width="8" x1="-218.83278809926384" y1="-95.23544623172259" x2="-226.5763330401878" y2="-124.22962794709065"/><line stroke="#D16666" stroke-width="8" x1="-141.79757127488034" y1="-28.188402751577804" x2="-113.82742091677412" y2="-16.608741146962323"/><line stroke="#D16666" stroke-width="8" x1="-141.79757127488034" y1="-28.188402751577804" x2="-169.68677332742774" y2="-16.543658702733"/><line stroke="#D16666" stroke-width="8" x1="253.96046250559937" y1="38.007394037039234" x2="245.87567138200836" y2="67.07653313516643"/><line stroke="#2C4251" stroke-width="8" x1="102.52179036024312" y1="35.60463971124364" x2="131.57623684962718" y2="43.35326288098289"/><line stroke="#B6C649" stroke-width="8" x1="87.2889303278331" y1="81.82855951049169" x2="112.87730345501703" y2="98.19164629374893"/><line stroke="#D16666" stroke-width="8" x1="-250.09293398214504" y1="10.43472158349647" x2="-259.35189911719027" y2="-18.1480417111316"/><line stroke="#B6C649" stroke-width="8" x1="181.2797318818785" y1="-182.31744137017927" x2="196.6391350509444" y2="-156.72066026524794"/><line stroke="#2C4251" stroke-width="8" x1="131.57623684962718" y1="43.35326288098289" x2="160.9972923592596" y2="39.32077775042346"/><line stroke="#D16666" stroke-width="8" x1="2.6615682321861924" y1="13.009177763380658" x2="32.95552595997504" y2="16.609037837063525"/><line stroke="#D16666" stroke-width="8" x1="2.6615682321861924" y1="13.009177763380658" x2="7.747339792110896" y2="42.41258681022691"/><line stroke="#D16666" stroke-width="8" x1="196.6391350509444" y1="-156.72066026524794" x2="166.81640380803103" y2="-154.45107203893494"/><line stroke="#D16666" stroke-width="8" x1="-73.57549953668632" y1="-9.148181224127098" x2="-92.65714881365908" y2="14.231108944792231"/><line stroke="#B6C649" stroke-width="8" x1="-65.1360809757428" y1="192.6914408120021" x2="-52.834327353630854" y2="162.5468586872233"/><line stroke="#B6C649" stroke-width="8" x1="-65.1360809757428" y1="192.6914408120021" x2="-86.88308431029054" y2="216.19442416388753"/><line stroke="#B6C649" stroke-width="8" x1="-65.1360809757428" y1="192.6914408120021" x2="-85.33190203612276" y2="166.96252579966836"/><line stroke="#B6C649" stroke-width="8" x1="-65.1360809757428" y1="192.6914408120021" x2="-32.66475480600728" y2="191.60854755966537"/><line stroke="#D16666" stroke-width="8" x1="-65.1360809757428" y1="192.6914408120021" x2="-96.25163301707062" y2="200.4524643343542"/><line stroke="#B6C649" stroke-width="8" x1="-65.1360809757428" y1="192.6914408120021" x2="-69.99089524917602" y2="160.11980820212924"/><line stroke="#B6C649" stroke-width="8" x1="-65.1360809757428" y1="192.6914408120021" x2="-38.81971646452539" y2="209.76983205580194"/><line stroke="#B6C649" stroke-width="8" x1="-65.1360809757428" y1="192.6914408120021" x2="-95.48126448820432" y2="181.49114572830288"/><line stroke="#B6C649" stroke-width="8" x1="-65.1360809757428" y1="192.6914408120021" x2="-38.39955076587454" y2="173.91491918428557"/><line stroke="#B6C649" stroke-width="8" x1="-65.1360809757428" y1="192.6914408120021" x2="-63.16778826034033" y2="227.46535751921562"/><line stroke="#D16666" stroke-width="8" x1="36.76009877641125" y1="-178.52787824117257" x2="7.805142699775162" y2="-170.2400909865841"/><line stroke="#D16666" stroke-width="8" x1="36.76009877641125" y1="-178.52787824117257" x2="51.21135817501722" y2="-151.87558411589455"/><line stroke="#D16666" stroke-width="8" x1="-63.16778826034033" y1="227.46535751921562" x2="-32.23622282963651" y2="232.33003824135938"/><line stroke="#D16666" stroke-width="8" x1="-63.16778826034033" y1="227.46535751921562" x2="-88.78996799666933" y2="244.93997842428047"/><line stroke="#D16666" stroke-width="8" x1="2.6290061443552486" y1="-117.4844549718682" x2="21.018400467960678" y2="-141.46737739806582"/><line stroke="#D16666" stroke-width="8" x1="2.6290061443552486" y1="-117.4844549718682" x2="32.91938718102393" y2="-114.67357299169015"/><line stroke="#D16666" stroke-width="8" x1="100.81350008865054" y1="-147.17206437182023" x2="102.791339977854" y2="-116.88175047947425"/><line stroke="#D16666" stroke-width="8" x1="197.76985850497323" y1="101.2849529654273" x2="168.68829522796773" y2="93.98194700385245"/><line stroke="#B6C649" stroke-width="8" x1="9.931781232197931" y1="-54.82392591354484" x2="-9.838129739952285" y2="-32.50590527151427"/><line stroke="#B6C649" stroke-width="8" x1="9.931781232197931" y1="-54.82392591354484" x2="39.218787881016375" y2="-62.14272282416355"/><line stroke="#D16666" stroke-width="8" x1="9.931781232197931" y1="-54.82392591354484" x2="11.42638220009997" y2="-84.73173075676935"/><line stroke="#2C4251" stroke-width="8" x1="-141.0922010987903" y1="-92.9748129538582" x2="-124.81182816812144" y2="-119.37801638761893"/><line stroke="#2C4251" stroke-width="8" x1="-141.0922010987903" y1="-92.9748129538582" x2="-150.24436751482352" y2="-121.58616016812192"/><line stroke="#D16666" stroke-width="8" x1="-124.81182816812144" y1="-119.37801638761893" x2="-111.25813597657097" y2="-146.5448045186844"/><line stroke="#2C4251" stroke-width="8" x1="229.01707440052013" y1="-24.946667825030474" x2="225.78783021704322" y2="5.630340718913127"/><line stroke="#2C4251" stroke-width="8" x1="229.01707440052013" y1="-24.946667825030474" x2="219.00231829027285" y2="-53.45218025456883"/><line stroke="#2C4251" stroke-width="8" x1="229.01707440052013" y1="-24.946667825030474" x2="248.780201370791" y2="-0.8424206185217847"/><line stroke="#2C4251" stroke-width="8" x1="229.01707440052013" y1="-24.946667825030474" x2="199.62941952056607" y2="-17.45165706961052"/><line stroke="#D16666" stroke-width="8" x1="229.01707440052013" y1="-24.946667825030474" x2="259.2409326181735" y2="-25.571944897225915"/><line stroke="#D16666" stroke-width="8" x1="-50.20846236522739" y1="50.88400317625493" x2="-20.009786106333397" y2="48.20636542177523"/><line stroke="#D16666" stroke-width="8" x1="-50.20846236522739" y1="50.88400317625493" x2="-35.412486479732316" y2="77.14161053365127"/><line stroke="#D16666" stroke-width="8" x1="173.04595059994747" y1="-91.18746510541203" x2="178.8997875713981" y2="-62.17328342939937"/><line stroke="#D16666" stroke-width="8" x1="-145.27741545727017" y1="128.06563455453042" x2="-164.49309569475795" y2="150.85748093835426"/><line stroke="#D16666" stroke-width="8" x1="72.4406088168094" y1="-249.82374031025907" x2="99.20208891125482" y2="-235.83973169178603"/><line stroke="#D16666" stroke-width="8" x1="191.97458988014307" y1="40.23780800482936" x2="177.52238673006227" y2="66.5164465008778"/><line stroke="#D16666" stroke-width="8" x1="-235.96390947492446" y1="96.45819636179824" x2="-246.94682079193774" y2="68.73939053259815"/><line stroke="#2C4251" stroke-width="8" x1="158.75332385032883" y1="-201.5216204263504" x2="133.85549704241066" y2="-185.06315432710983"/><line stroke="#BE5504" stroke-width="8" x1="180.83377384123503" y1="183.56031511861374" x2="201.46351030097054" y2="161.0979685994558"/><line stroke="#D16666" stroke-width="8" x1="-137.3809200532357" y1="67.04083521695789" x2="-114.45893575866312" y2="86.2105193823894"/><line stroke="#D16666" stroke-width="8" x1="-137.3809200532357" y1="67.04083521695789" x2="-145.25980411993322" y2="37.99852634335823"/><line stroke="#D16666" stroke-width="8" x1="-137.3809200532357" y1="67.04083521695789" x2="-112.0973755310106" y2="49.98345953802627"/><line stroke="#D16666" stroke-width="8" x1="-137.3809200532357" y1="67.04083521695789" x2="-164.98584113484745" y2="78.11717228615439"/><line stroke="#B6C649" stroke-width="8" x1="-67.84165641646823" y1="-82.94336877463094" x2="-81.95071782578289" y2="-53.06054509056506"/><line stroke="#B6C649" stroke-width="8" x1="-67.84165641646823" y1="-82.94336877463094" x2="-38.025475132554234" y2="-68.52612979086462"/><line stroke="#B6C649" stroke-width="8" x1="-67.84165641646823" y1="-82.94336877463094" x2="-102.6920751261737" y2="-81.94411090876775"/><line stroke="#B6C649" stroke-width="8" x1="-67.84165641646823" y1="-82.94336877463094" x2="-94.26089850319748" y2="-64.86094369824866"/><line stroke="#B6C649" stroke-width="8" x1="-67.84165641646823" y1="-82.94336877463094" x2="-93.0849588043955" y2="-102.00524583213361"/><line stroke="#B6C649" stroke-width="8" x1="-67.84165641646823" y1="-82.94336877463094" x2="-40.05533306256324" y2="-100.73718939732838"/><line stroke="#B6C649" stroke-width="8" x1="-67.84165641646823" y1="-82.94336877463094" x2="-49.33996429039307" y2="-55.77023181717935"/><line stroke="#B6C649" stroke-width="8" x1="-67.84165641646823" y1="-82.94336877463094" x2="-34.75204020900302" y2="-84.51784901477933"/><line stroke="#B6C649" stroke-width="8" x1="-67.84165641646823" y1="-82.94336877463094" x2="-55.54425276165785" y2="-112.25927376041601"/><line stroke="#B6C649" stroke-width="8" x1="-67.84165641646823" y1="-82.94336877463094" x2="-77.21458794834462" y2="-116.29951404979359"/><line stroke="#B6C649" stroke-width="8" x1="-67.84165641646823" y1="-82.94336877463094" x2="-64.99913193335222" y2="-50.08327381302329"/><line stroke="#2C4251" stroke-width="8" x1="-102.6920751261737" y1="-81.94411090876775" x2="-123.15213466142671" y2="-57.45904881995707"/><line stroke="#2C4251" stroke-width="8" x1="-77.21458794834462" y1="-116.29951404979359" x2="-53.692555859159185" y2="-137.36052156094868"/><line stroke="#D16666" stroke-width="8" x1="-204.14301394830878" y1="143.4170435117638" x2="-225.3906869688954" y2="122.44354555286002"/><line stroke="#B6C649" stroke-width="8" x1="-177.47596674625788" y1="-44.59460359793067" x2="-192.59469046843597" y2="-70.73208664219347"/></g><g stroke="#fff" stroke-width="1.5"><circle r="5" fill="#808080" cx="158.59527559890543" cy="-17.64665962726513"><title>HA634</title></circle><circle r="5" fill="#808080" cx="-119.19772740753363" cy="16.468572380379708"><title>KM745</title></circle><circle r="5" fill="#808080" cx="-137.62817254853906" cy="-199.42219676878028"><title>OZ181</title></circle><circle r="5" fill="#808080" cx="-160.2827666057412" cy="-176.45970500205084"><title>UC868</title></circle><circle r="5" fill="#808080" cx="-121.84334495384034" cy="-226.52335775497014"><title>WH677</title></circle><circle r="5" fill="#808080" cx="16.052000800883622" cy="110.92959925968205"><title>JC848</title></circle><circle r="5" fill="#808080" cx="19.52423360025915" cy="80.90183693458336"><title>HZ885</title></circle><circle r="5" fill="#808080" cx="46.643662954160526" cy="96.32746765361112"><title>RT325</title></circle><circle r="5" fill="#808080" cx="-216.1820953990266" cy="0.9982899439056423"><title>BH906</title></circle><circle r="5" fill="#808080" cx="70.45380193022842" cy="-13.494471576343487"><title>AN177</title></circle><circle r="5" fill="#808080" cx="93.1927229302489" cy="7.672787873697612"><title>QJ536</title></circle><circle r="5" fill="#808080" cx="-225.23055558879338" cy="51.6262765144084"><title>PB196</title></circle><circle r="5" fill="#808080" cx="165.83421734498432" cy="-120.92611716416381"><title>ON966</title></circle><circle r="5" fill="#808080" cx="-23.30605502086741" cy="109.7958478754364"><title>IW959</title></circle><circle r="5" fill="#808080" cx="-20.331519390308767" cy="-225.80610868364462"><title>CT231</title></circle><circle r="5" fill="#808080" cx="-10.96575638906763" cy="-256.1351102941372"><title>LY519</title></circle><circle r="5" fill="#808080" cx="-111.36031723629813" cy="120.04084858523913"><title>FY778</title></circle><circle r="5" fill="#808080" cx="-190.9897664818559" cy="-120.42708260468295"><title>QS379</title></circle><circle r="5" fill="#808080" cx="-175.63446983605363" cy="-94.65043003847191"><title>SY772</title></circle><circle r="5" fill="#808080" cx="211.78300377988427" cy="71.68298479562802"><title>IT343</title></circle><circle r="5" fill="#808080" cx="-171.43217875681864" cy="102.63769303260052"><title>ZU277</title></circle><circle r="5" fill="#808080" cx="237.23938802077643" cy="-84.3866959527044"><title>VD234</title></circle><circle r="5" fill="#808080" cx="-190.35281150240053" cy="61.42193976568934"><title>SE116</title></circle><circle r="5" fill="#808080" cx="144.71371468879744" cy="-76.95929518099395"><title>CB351</title></circle><circle r="5" fill="#808080" cx="71.13793070093153" cy="165.47907069588462"><title>XP609</title></circle><circle r="5" fill="#808080" cx="-205.07097774040193" cy="-28.867872109936794"><title>FI685</title></circle><circle r="5" fill="#808080" cx="39.67246623173954" cy="163.553055774827"><title>DO502</title></circle><circle r="5" fill="#808080" cx="117.4223075920353" cy="226.51073095486294"><title>LI717</title></circle><circle r="5" fill="#808080" cx="-31.960694012608183" cy="-11.466665319577862"><title>NQ103</title></circle><circle r="5" fill="#808080" cx="39.07482413761839" cy="228.6408058200278"><title>TO761</title></circle><circle r="5" fill="#808080" cx="106.81980332179657" cy="-206.5502948256805"><title>XL921</title></circle><circle r="5" fill="#808080" cx="143.42412517583736" cy="76.24252090786864"><title>FB819</title></circle><circle r="5" fill="#808080" cx="-177.50940085050365" cy="33.29525751737858"><title>ON148</title></circle><circle r="5" fill="#808080" cx="95.90266130107207" cy="-25.73429599792069"><title>YJ320</title></circle><circle r="5" fill="#808080" cx="167.05165083814848" cy="8.869594751678635"><title>ST649</title></circle><circle r="5" fill="#808080" cx="141.40010872641628" cy="141.85118379080612"><title>QM627</title></circle><circle r="5" fill="#808080" cx="71.54244945343174" cy="-105.30048325422383"><title>GF785</title></circle><circle r="5" fill="#808080" cx="102.59098624428643" cy="155.94175564528237"><title>GR120</title></circle><circle r="5" fill="#808080" cx="227.3599758588737" cy="122.87863249752338"><title>GO218</title></circle><circle r="5" fill="#808080" cx="-38.80775390855288" cy="-170.13343648692458"><title>TR290</title></circle><circle r="5" fill="#808080" cx="-144.06038709459028" cy="175.94854241187238"><title>KQ310</title></circle><circle r="5" fill="#808080" cx="-173.38160120402324" cy="185.04979196020867"><title>PG781</title></circle><circle r="5" fill="#808080" cx="-76.76286771714324" cy="39.787823773982375"><title>KU419</title></circle><circle r="5" fill="#808080" cx="70.16515127273094" cy="-178.30151639401817"><title>CH521</title></circle><circle r="5" fill="#808080" cx="70.94704367298412" cy="217.13865780905402"><title>IW852</title></circle><circle r="5" fill="#808080" cx="-244.136699550352" cy="-85.32643878687709"><title>WP288</title></circle><circle r="5" fill="#808080" cx="231.5569124840474" cy="-112.99271754939252"><title>RQ344</title></circle><circle r="5" fill="#808080" cx="13.829779034098157" cy="195.4419732034791"><title>SW913</title></circle><circle r="5" fill="#808080" cx="-82.69863181263389" cy="107.24822538267763"><title>FT538</title></circle><circle r="5" fill="#808080" cx="137.8265414804672" cy="-162.05587057244003"><title>BA501</title></circle><circle r="5" fill="#808080" cx="11.960054749580136" cy="-15.406932291999855"><title>EN721</title></circle><circle r="5" fill="#808080" cx="75.89286000648708" cy="49.86511569927576"><title>CL992</title></circle><circle r="5" fill="#808080" cx="109.02861608254479" cy="-55.14083439117395"><title>GR516</title></circle><circle r="5" fill="#808080" cx="169.97037139744583" cy="130.21829635859902"><title>KE138</title></circle><circle r="5" fill="#808080" cx="43.19229219841904" cy="-206.93624521981053"><title>CN769</title></circle><circle r="5" fill="#808080" cx="-9.711149026896642" cy="254.87094145271826"><title>IA113</title></circle><circle r="5" fill="#808080" cx="-218.83278809926384" cy="-95.23544623172259"><title>BD289</title></circle><circle r="5" fill="#808080" cx="-141.79757127488034" cy="-28.188402751577804"><title>DQ335</title></circle><circle r="5" fill="#808080" cx="253.96046250559937" cy="38.007394037039234"><title>QQ439</title></circle><circle r="5" fill="#808080" cx="102.52179036024312" cy="35.60463971124364"><title>JF439</title></circle><circle r="5" fill="#808080" cx="87.2889303278331" cy="81.82855951049169"><title>LD489</title></circle><circle r="5" fill="#808080" cx="-250.09293398214504" cy="10.43472158349647"><title>CF543</title></circle><circle r="5" fill="#808080" cx="181.2797318818785" cy="-182.31744137017927"><title>FT869</title></circle><circle r="5" fill="#808080" cx="131.57623684962718" cy="43.35326288098289"><title>RH657</title></circle><circle r="5" fill="#808080" cx="2.6615682321861924" cy="13.009177763380658"><title>PW898</title></circle><circle r="5" fill="#808080" cx="196.6391350509444" cy="-156.72066026524794"><title>PB638</title></circle><circle r="5" fill="#808080" cx="-73.57549953668632" cy="-9.148181224127098"><title>RQ982</title></circle><circle r="5" fill="#808080" cx="-65.1360809757428" cy="192.6914408120021"><title>IQ990</title></circle><circle r="5" fill="#808080" cx="36.76009877641125" cy="-178.52787824117257"><title>WF998</title></circle><circle r="5" fill="#808080" cx="-63.16778826034033" cy="227.46535751921562"><title>KJ216</title></circle><circle r="5" fill="#808080" cx="2.6290061443552486" cy="-117.4844549718682"><title>XB594</title></circle><circle r="5" fill="#808080" cx="100.81350008865054" cy="-147.17206437182023"><title>AO354</title></circle><circle r="5" fill="#808080" cx="197.76985850497323" cy="101.2849529654273"><title>VK826</title></circle><circle r="5" fill="#808080" cx="9.931781232197931" cy="-54.82392591354484"><title>SE930</title></circle><circle r="5" fill="#808080" cx="-141.0922010987903" cy="-92.9748129538582"><title>ZE674</title></circle><circle r="5" fill="#808080" cx="-124.81182816812144" cy="-119.37801638761893"><title>AL209</title></circle><circle r="5" fill="#808080" cx="229.01707440052013" cy="-24.946667825030474"><title>GJ377</title></circle><circle r="5" fill="#808080" cx="-50.20846236522739" cy="50.88400317625493"><title>YO171</title></circle><circle r="5" fill="#808080" cx="173.04595059994747" cy="-91.18746510541203"><title>FP269</title></circle><circle r="5" fill="#808080" cx="-145.27741545727017" cy="128.06563455453042"><title>ER691</title></circle><circle r="5" fill="#808080" cx="72.4406088168094" cy="-249.82374031025907"><title>GU402</title></circle><circle r="5" fill="#808080" cx="191.97458988014307" cy="40.23780800482936"><title>SD440</title></circle><circle r="5" fill="#808080" cx="-235.96390947492446" cy="96.45819636179824"><title>FQ437</title></circle><circle r="5" fill="#808080" cx="158.75332385032883" cy="-201.5216204263504"><title>VZ336</title></circle><circle r="5" fill="#808080" cx="180.83377384123503" cy="183.56031511861374"><title>OD267</title></circle><circle r="5" fill="#808080" cx="-137.3809200532357" cy="67.04083521695789"><title>HX316</title></circle><circle r="5" fill="#808080" cx="-67.84165641646823" cy="-82.94336877463094"><title>CH001</title></circle><circle r="5" fill="#808080" cx="-102.6920751261737" cy="-81.94411090876775"><title>PB479</title></circle><circle r="5" fill="#808080" cx="-77.21458794834462" cy="-116.29951404979359"><title>LY189</title></circle><circle r="5" fill="#808080" cx="-204.14301394830878" cy="143.4170435117638"><title>BA648</title></circle><circle r="5" fill="#808080" cx="-177.47596674625788" cy="-44.59460359793067"><title>JS473</title></circle><circle r="5" fill="#808080" cx="180.95173701642074" cy="-37.5949210202483"><title>IG290</title></circle><circle r="5" fill="#808080" cx="141.03101217012036" cy="-42.122191042611156"><title>GP180</title></circle><circle r="5" fill="#808080" cx="-147.22069592811826" cy="5.849982409640476"><title>XV777</title></circle><circle r="5" fill="#808080" cx="-107.06799134322527" cy="-205.03182216695467"><title>UY252</title></circle><circle r="5" fill="#808080" cx="-136.29220766773412" cy="-168.25439870483842"><title>MW141</title></circle><circle r="5" fill="#808080" cx="-167.75481648467596" cy="-202.64681720620138"><title>AR462</title></circle><circle r="5" fill="#808080" cx="-113.3576564188763" cy="-180.23899096213913"><title>XC636</title></circle><circle r="5" fill="#808080" cx="-190.11864865323628" cy="-171.39534968492097"><title>ZJ935</title></circle><circle r="5" fill="#808080" cx="-92.21239678692207" cy="-234.61856585175886"><title>IP573</title></circle><circle r="5" fill="#808080" cx="11.083372462261261" cy="140.61170099945505"><title>MP917</title></circle><circle r="5" fill="#808080" cx="40.61439067230297" cy="128.96877079304647"><title>YX864</title></circle><circle r="5" fill="#808080" cx="30.893130707934223" cy="52.36126752612484"><title>IS758</title></circle><circle r="5" fill="#808080" cx="48.18431048939056" cy="69.32833812826391"><title>CR226</title></circle><circle r="5" fill="#808080" cx="-9.836527564086579" cy="84.36471613959387"><title>JH885</title></circle><circle r="5" fill="#808080" cx="74.67423159480896" cy="107.91424449611819"><title>OC739</title></circle><circle r="5" fill="#808080" cx="-186.73292881469226" cy="6.5081808802672345"><title>UW109</title></circle><circle r="5" fill="#808080" cx="51.59397619054788" cy="-37.37855546107115"><title>ZG263</title></circle><circle r="5" fill="#808080" cx="65.72472869416161" cy="21.053677401709127"><title>WJ381</title></circle><circle r="5" fill="#808080" cx="-253.24886831703273" cy="39.61784576259119"><title>QC901</title></circle><circle r="5" fill="#808080" cx="195.51203744889375" cy="-115.79967713779013"><title>UX253</title></circle><circle r="5" fill="#808080" cx="-17.581189563285626" cy="139.07644449488768"><title>EF898</title></circle><circle r="5" fill="#808080" cx="-50.18456639008494" cy="-235.96334680080702"><title>WU531</title></circle><circle r="5" fill="#808080" cx="5.680428077878941" cy="-208.93841516386266"><title>NO557</title></circle><circle r="5" fill="#808080" cx="-49.30267008675095" cy="-215.36687010322024"><title>UE543</title></circle><circle r="5" fill="#808080" cx="9.87966047438677" cy="-231.92151078745678"><title>YC852</title></circle><circle r="5" fill="#808080" cx="-17.805726921302828" cy="-195.19930412885273"><title>ID404</title></circle><circle r="5" fill="#808080" cx="-41.62543641992661" cy="-259.2361639518905"><title>ML216</title></circle><circle r="5" fill="#808080" cx="19.86936760766633" cy="-258.42530414934254"><title>QQ131</title></circle><circle r="5" fill="#808080" cx="-137.17072903061714" cy="103.09015375883041"><title>ZZ198</title></circle><circle r="5" fill="#808080" cx="-205.3669907117614" cy="-146.95832738119782"><title>YS610</title></circle><circle r="5" fill="#808080" cx="-168.8962239686805" cy="-140.8758414958561"><title>GH467</title></circle><circle r="5" fill="#808080" cx="-158.9511398640534" cy="-68.74008733733164"><title>HB571</title></circle><circle r="5" fill="#808080" cx="221.74244620937125" cy="43.20301264953046"><title>ZP938</title></circle><circle r="5" fill="#808080" cx="-192.19855405382373" cy="122.99409225864181"><title>TY704</title></circle><circle r="5" fill="#808080" cx="250.79175603866085" cy="-57.69029974760605"><title>CD925</title></circle><circle r="5" fill="#808080" cx="207.03364594789215" cy="-83.98344379842733"><title>GG121</title></circle><circle r="5" fill="#808080" cx="-206.64395256688422" cy="86.71375119247628"><title>OJ809</title></circle><circle r="5" fill="#808080" cx="136.73249481015063" cy="-106.36299363310637"><title>NK361</title></circle><circle r="5" fill="#808080" cx="72.96137892516577" cy="135.66425873569543"><title>OE677</title></circle><circle r="5" fill="#808080" cx="-234.89450816619643" cy="-27.148606392924385"><title>JD955</title></circle><circle r="5" fill="#808080" cx="-215.62015424546115" cy="-57.03437632890342"><title>OD818</title></circle><circle r="5" fill="#808080" cx="9.831388403746196" cy="169.08103799738524"><title>AZ415</title></circle><circle r="5" fill="#808080" cx="133.1742995137727" cy="199.52979856191664"><title>MT734</title></circle><circle r="5" fill="#808080" cx="90.57896719555649" cy="240.71488159593736"><title>SU254</title></circle><circle r="5" fill="#808080" cx="107.16023818716434" cy="197.74608421307246"><title>GI237</title></circle><circle r="5" fill="#808080" cx="147.00991823666416" cy="217.9208280198819"><title>BS479</title></circle><circle r="5" fill="#808080" cx="-29.76513087839274" cy="18.146491890813003"><title>LF637</title></circle><circle r="5" fill="#808080" cx="43.252861716231585" cy="198.675623827632"><title>RP349</title></circle><circle r="5" fill="#808080" cx="59.69489698293886" cy="250.23684078480883"><title>YN141</title></circle><circle r="5" fill="#808080" cx="23.829023116098984" cy="254.7083083949259"><title>MF760</title></circle><circle r="5" fill="#808080" cx="133.1304888888456" cy="-220.86999027024729"><title>SF241</title></circle><circle r="5" fill="#808080" cx="114.461597451165" cy="67.84927404497255"><title>PY661</title></circle><circle r="5" fill="#808080" cx="-207.70607156580627" cy="31.269204381023908"><title>NK138</title></circle><circle r="5" fill="#808080" cx="123.48352698770366" cy="-14.500802030396216"><title>WA731</title></circle><circle r="5" fill="#808080" cx="196.93717401409714" cy="12.534379299710915"><title>TQ579</title></circle><circle r="5" fill="#808080" cx="136.58944106940785" cy="10.940338252046724"><title>GR454</title></circle><circle r="5" fill="#808080" cx="162.98481630563316" cy="163.03187821781117"><title>GE298</title></circle><circle r="5" fill="#808080" cx="46.64321994198969" cy="-88.73710198348081"><title>KA942</title></circle><circle r="5" fill="#808080" cx="72.8837552732789" cy="-135.14420412513292"><title>MK800</title></circle><circle r="5" fill="#808080" cx="108.62842787752184" cy="126.55966972402797"><title>KB772</title></circle><circle r="5" fill="#808080" cx="130.24249621722828" cy="167.80493042473546"><title>FT679</title></circle><circle r="5" fill="#808080" cx="234.1919742520992" cy="93.77939264173824"><title>QJ495</title></circle><circle r="5" fill="#808080" cx="-67.52541153357623" cy="-157.7827419123388"><title>TN949</title></circle><circle r="5" fill="#808080" cx="-58.64512789745554" cy="-194.11049853565558"><title>YU725</title></circle><circle r="5" fill="#808080" cx="-16.650736264361978" cy="-149.32677780619954"><title>YQ341</title></circle><circle r="5" fill="#808080" cx="-69.73554381909408" cy="-178.13101660550058"><title>CU979</title></circle><circle r="5" fill="#808080" cx="-124.96320949333888" cy="152.37189688749226"><title>RO194</title></circle><circle r="5" fill="#808080" cx="-130.54078915269793" cy="203.4749727834317"><title>BA477</title></circle><circle r="5" fill="#808080" cx="-154.4066405584138" cy="204.90531893626385"><title>WM391</title></circle><circle r="5" fill="#808080" cx="-197.05354110966925" cy="166.74474219164287"><title>FX694</title></circle><circle r="5" fill="#808080" cx="-58.45246501617122" cy="15.156856339806286"><title>AK199</title></circle><circle r="5" fill="#808080" cx="100.13736566891005" cy="-177.98940853209044"><title>EC101</title></circle><circle r="5" fill="#808080" cx="79.44206069426731" cy="188.40479146804222"><title>XB825</title></circle><circle r="5" fill="#808080" cx="-248.64957207035144" cy="-55.634806158369656"><title>VT858</title></circle><circle r="5" fill="#808080" cx="215.88199538950448" cy="-138.51908380186987"><title>NZ740</title></circle><circle r="5" fill="#808080" cx="6.764118881355755" cy="224.26877989282735"><title>PQ411</title></circle><circle r="5" fill="#808080" cx="-87.48039567873133" cy="76.70612403616114"><title>MA489</title></circle><circle r="5" fill="#808080" cx="-61.69170190192628" cy="85.20531205195397"><title>VV705</title></circle><circle r="5" fill="#808080" cx="-55.70226733043628" cy="120.50664945300669"><title>NX270</title></circle><circle r="5" fill="#808080" cx="131.7897976708858" cy="-133.1976749214623"><title>RK889</title></circle><circle r="5" fill="#808080" cx="41.736481835721094" cy="-12.206561326251629"><title>VL444</title></circle><circle r="5" fill="#808080" cx="78.53687133930391" cy="-52.80177252742518"><title>YO672</title></circle><circle r="5" fill="#808080" cx="88.2571129665816" cy="-77.88782752149773"><title>BL714</title></circle><circle r="5" fill="#808080" cx="115.51618244675787" cy="-84.68317081279342"><title>NP321</title></circle><circle r="5" fill="#808080" cx="145.05152720730587" cy="112.51090331477667"><title>LR356</title></circle><circle r="5" fill="#808080" cx="200.00514416323995" cy="132.98990292843453"><title>PS273</title></circle><circle r="5" fill="#808080" cx="73.19400486941866" cy="-211.13714941565314"><title>ZU913</title></circle><circle r="5" fill="#808080" cx="49.41028228512326" cy="-236.44828470481127"><title>VG381</title></circle><circle r="5" fill="#808080" cx="-40.22584475167515" cy="259.1531623667364"><title>FW741</title></circle><circle r="5" fill="#808080" cx="-226.5763330401878" cy="-124.22962794709065"><title>GA490</title></circle><circle r="5" fill="#808080" cx="-113.82742091677412" cy="-16.608741146962323"><title>MA797</title></circle><circle r="5" fill="#808080" cx="-169.68677332742774" cy="-16.543658702733"><title>TI391</title></circle><circle r="5" fill="#808080" cx="245.87567138200836" cy="67.07653313516643"><title>VZ664</title></circle><circle r="5" fill="#808080" cx="112.87730345501703" cy="98.19164629374893"><title>WX338</title></circle><circle r="5" fill="#808080" cx="-259.35189911719027" cy="-18.1480417111316"><title>TR873</title></circle><circle r="5" fill="#808080" cx="160.9972923592596" cy="39.32077775042346"><title>ST977</title></circle><circle r="5" fill="#808080" cx="32.95552595997504" cy="16.609037837063525"><title>GH602</title></circle><circle r="5" fill="#808080" cx="7.747339792110896" cy="42.41258681022691"><title>OC631</title></circle><circle r="5" fill="#808080" cx="166.81640380803103" cy="-154.45107203893494"><title>WR662</title></circle><circle r="5" fill="#808080" cx="-92.65714881365908" cy="14.231108944792231"><title>TJ223</title></circle><circle r="5" fill="#808080" cx="-52.834327353630854" cy="162.5468586872233"><title>RT165</title></circle><circle r="5" fill="#808080" cx="-86.88308431029054" cy="216.19442416388753"><title>LH430</title></circle><circle r="5" fill="#808080" cx="-85.33190203612276" cy="166.96252579966836"><title>BI720</title></circle><circle r="5" fill="#808080" cx="-32.66475480600728" cy="191.60854755966537"><title>BI957</title></circle><circle r="5" fill="#808080" cx="-96.25163301707062" cy="200.4524643343542"><title>BH553</title></circle><circle r="5" fill="#808080" cx="-69.99089524917602" cy="160.11980820212924"><title>LB307</title></circle><circle r="5" fill="#808080" cx="-38.81971646452539" cy="209.76983205580194"><title>ZK279</title></circle><circle r="5" fill="#808080" cx="-95.48126448820432" cy="181.49114572830288"><title>FV483</title></circle><circle r="5" fill="#808080" cx="-38.39955076587454" cy="173.91491918428557"><title>PV664</title></circle><circle r="5" fill="#808080" cx="7.805142699775162" cy="-170.2400909865841"><title>YR694</title></circle><circle r="5" fill="#808080" cx="51.21135817501722" cy="-151.87558411589455"><title>KM334</title></circle><circle r="5" fill="#808080" cx="-32.23622282963651" cy="232.33003824135938"><title>CM854</title></circle><circle r="5" fill="#808080" cx="-88.78996799666933" cy="244.93997842428047"><title>LK483</title></circle><circle r="5" fill="#808080" cx="21.018400467960678" cy="-141.46737739806582"><title>MC155</title></circle><circle r="5" fill="#808080" cx="32.91938718102393" cy="-114.67357299169015"><title>CF980</title></circle><circle r="5" fill="#808080" cx="102.791339977854" cy="-116.88175047947425"><title>MW828</title></circle><circle r="5" fill="#808080" cx="168.68829522796773" cy="93.98194700385245"><title>MH463</title></circle><circle r="5" fill="#808080" cx="-9.838129739952285" cy="-32.50590527151427"><title>QW737</title></circle><circle r="5" fill="#808080" cx="39.218787881016375" cy="-62.14272282416355"><title>GQ457</title></circle><circle r="5" fill="#808080" cx="11.42638220009997" cy="-84.73173075676935"><title>QG478</title></circle><circle r="5" fill="#808080" cx="-150.24436751482352" cy="-121.58616016812192"><title>MH914</title></circle><circle r="5" fill="#808080" cx="-111.25813597657097" cy="-146.5448045186844"><title>OE917</title></circle><circle r="5" fill="#808080" cx="225.78783021704322" cy="5.630340718913127"><title>TM821</title></circle><circle r="5" fill="#808080" cx="219.00231829027285" cy="-53.45218025456883"><title>GN367</title></circle><circle r="5" fill="#808080" cx="248.780201370791" cy="-0.8424206185217847"><title>RN428</title></circle><circle r="5" fill="#808080" cx="199.62941952056607" cy="-17.45165706961052"><title>FS489</title></circle><circle r="5" fill="#808080" cx="259.2409326181735" cy="-25.571944897225915"><title>WS317</title></circle><circle r="5" fill="#808080" cx="-20.009786106333397" cy="48.20636542177523"><title>ZN918</title></circle><circle r="5" fill="#808080" cx="-35.412486479732316" cy="77.14161053365127"><title>VM767</title></circle><circle r="5" fill="#808080" cx="178.8997875713981" cy="-62.17328342939937"><title>FG336</title></circle><circle r="5" fill="#808080" cx="-164.49309569475795" cy="150.85748093835426"><title>FO795</title></circle><circle r="5" fill="#808080" cx="99.20208891125482" cy="-235.83973169178603"><title>FT281</title></circle><circle r="5" fill="#808080" cx="177.52238673006227" cy="66.5164465008778"><title>ZF257</title></circle><circle r="5" fill="#808080" cx="-246.94682079193774" cy="68.73939053259815"><title>CC647</title></circle><circle r="5" fill="#808080" cx="133.85549704241066" cy="-185.06315432710983"><title>QH864</title></circle><circle r="5" fill="#808080" cx="201.46351030097054" cy="161.0979685994558"><title>QP938</title></circle><circle r="5" fill="#808080" cx="-114.45893575866312" cy="86.2105193823894"><title>AT823</title></circle><circle r="5" fill="#808080" cx="-145.25980411993322" cy="37.99852634335823"><title>TZ315</title></circle><circle r="5" fill="#808080" cx="-112.0973755310106" cy="49.98345953802627"><title>WB911</title></circle><circle r="5" fill="#808080" cx="-164.98584113484745" cy="78.11717228615439"><title>ML189</title></circle><circle r="5" fill="#808080" cx="-81.95071782578289" cy="-53.06054509056506"><title>ZQ499</title></circle><circle r="5" fill="#808080" cx="-38.025475132554234" cy="-68.52612979086462"><title>YU251</title></circle><circle r="5" fill="#808080" cx="-94.26089850319748" cy="-64.86094369824866"><title>LH171</title></circle><circle r="5" fill="#808080" cx="-93.0849588043955" cy="-102.00524583213361"><title>LL232</title></circle><circle r="5" fill="#808080" cx="-40.05533306256324" cy="-100.73718939732838"><title>RQ491</title></circle><circle r="5" fill="#808080" cx="-49.33996429039307" cy="-55.77023181717935"><title>IY775</title></circle><circle r="5" fill="#808080" cx="-34.75204020900302" cy="-84.51784901477933"><title>JM835</title></circle><circle r="5" fill="#808080" cx="-55.54425276165785" cy="-112.25927376041601"><title>JB487</title></circle><circle r="5" fill="#808080" cx="-64.99913193335222" cy="-50.08327381302329"><title>FA842</title></circle><circle r="5" fill="#808080" cx="-123.15213466142671" cy="-57.45904881995707"><title>JS787</title></circle><circle r="5" fill="#808080" cx="-53.692555859159185" cy="-137.36052156094868"><title>AN966</title></circle><circle r="5" fill="#808080" cx="-225.3906869688954" cy="122.44354555286002"><title>FM143</title></circle><circle r="5" fill="#808080" cx="-192.59469046843597" cy="-70.73208664219347"><title>BN442</title></circle></g><g><rect x="-350" y="-300" width="32" height="32" fill="#D16666"/><rect x="-350" y="-257.3333333333333" width="32" height="32" fill="#B6C649"/><rect x="-350" y="-214.66666666666669" width="32" height="32" fill="#2C4251"/><rect x="-350" y="-172" width="32" height="32" fill="#BE5504"/></g><g><text x="-400" y="-280" font-family="Helvetica Neue, sans-serif" font-size="16" fill="black">family</text><text x="-400" y="-237.33333333333334" font-family="Helvetica Neue, sans-serif" font-size="16" fill="black">social</text><text x="-400" y="-194.66666666666669" font-family="Helvetica Neue, sans-serif" font-size="16" fill="black">work</text><text x="-400" y="-152" font-family="Helvetica Neue, sans-serif" font-size="16" fill="black">travel</text></g></svg>