<svg viewBox="-477,-400,954,800" xmlns="http://www.w3.org/2000/svg" xmlns:xlink="http://www.w3.org/1999/xlink"><g><line stroke="black" stroke-width="8" x1="174.73477145456775" y1="-31.87946872476196" x2="195.75279107685975" y2="-53.785538835081766"/><line stroke="black" stroke-width="8" x1="174.73477145456775" y1="-31.87946872476196" x2="145.7062039592119" y2="-41.38564416451998"/><line stroke="black" stroke-width="8" x1="-110.7751926952215" y1="24.529675932122167" x2="-137.29288706667367" y2="10.002961198164758"/><line stroke="black" stroke-width="8" x1="-121.02420099935944" y1="-190.20693415342868" x2="-99.14574600766976" y2="-212.17069089260644"/><line stroke="black" stroke-width="8" x1="-121.02420099935944" y1="-190.20693415342868" x2="-97.59802611357097" y2="-170.116066508486"/><line stroke="black" stroke-width="8" x1="-121.02420099935944" y1="-190.20693415342868" x2="-124.49808212291939" y2="-221.91702112944395"/><line stroke="black" stroke-width="8" x1="-121.02420099935944" y1="-190.20693415342868" x2="-148.22098402988502" y2="-204.23492996844138"/><line stroke="black" stroke-width="8" x1="-121.02420099935944" y1="-190.20693415342868" x2="-89.57229221109706" y2="-190.50124737318868"/><line stroke="black" stroke-width="8" x1="-121.02420099935944" y1="-190.20693415342868" x2="-143.20629371250433" y2="-169.38074091625649"/><line stroke="black" stroke-width="8" x1="-143.20629371250433" y1="-169.38074091625649" x2="-168.93418963427132" y2="-187.05824386610672"/><line stroke="black" stroke-width="8" x1="-124.49808212291939" y1="-221.91702112944395" x2="-98.72794639650336" y2="-239.39798480831863"/><line stroke="black" stroke-width="8" x1="23.919571018406845" y1="100.58792027062634" x2="14.981136291838663" y2="129.38958530396556"/><line stroke="black" stroke-width="8" x1="23.919571018406845" y1="100.58792027062634" x2="53.45013986804564" y2="107.35975416344021"/><line stroke="black" stroke-width="8" x1="23.919571018406845" y1="100.58792027062634" x2="7.434189002743294" y2="74.21471335544183"/><line stroke="black" stroke-width="8" x1="7.434189002743294" y1="74.21471335544183" x2="-0.09892639262385165" y2="44.86243208626188"/><line stroke="black" stroke-width="8" x1="7.434189002743294" y1="74.21471335544183" x2="38.742041927798134" y2="73.87667745052549"/><line stroke="black" stroke-width="8" x1="7.434189002743294" y1="74.21471335544183" x2="27.644877365013308" y2="50.8906943057038"/><line stroke="black" stroke-width="8" x1="7.434189002743294" y1="74.21471335544183" x2="-6.376779116260202" y2="100.71556868612785"/><line stroke="black" stroke-width="8" x1="38.742041927798134" y1="73.87667745052549" x2="68.34169961124923" y2="78.81599441317539"/><line stroke="black" stroke-width="8" x1="-218.34223173788243" y1="13.919175817697019" x2="-188.85639333295396" y2="8.536011877536708"/><line stroke="black" stroke-width="8" x1="70.43099707782066" y1="-27.360721707335976" x2="92.81312205055008" y2="-6.747410875071972"/><line stroke="black" stroke-width="8" x1="70.43099707782066" y1="-27.360721707335976" x2="46.39011368284496" y2="-45.85496079724394"/><line stroke="black" stroke-width="8" x1="92.81312205055008" y1="-6.747410875071972" x2="66.67270918131727" y2="8.501934343257734"/><line stroke="black" stroke-width="8" x1="-222.37726480173248" y1="43.30217228180756" x2="-251.52785881174927" y2="52.12189976900203"/><line stroke="black" stroke-width="8" x1="153.85397286509303" y1="-142.7097610162861" x2="179.79536986942296" y2="-127.66647335200011"/><line stroke="black" stroke-width="8" x1="-15.98259670658489" y1="153.21509800202307" x2="-3.5586210586297358" y2="180.1597648837558"/><line stroke="black" stroke-width="8" x1="-27.107367473925713" y1="-221.28132326812104" x2="-57.91827952972964" y2="-222.38020100578015"/><line stroke="black" stroke-width="8" x1="-27.107367473925713" y1="-221.28132326812104" x2="1.948216866800908" y2="-210.32386679434205"/><line stroke="black" stroke-width="8" x1="-27.107367473925713" y1="-221.28132326812104" x2="-48.055962889383714" y2="-198.46958437561386"/><line stroke="black" stroke-width="8" x1="-27.107367473925713" y1="-221.28132326812104" x2="-28.45300542654389" y2="-252.70910254535917"/><line stroke="black" stroke-width="8" x1="-27.107367473925713" y1="-221.28132326812104" x2="0.9015837338093063" y2="-234.13240984417226"/><line stroke="black" stroke-width="8" x1="-27.107367473925713" y1="-221.28132326812104" x2="-15.699252057296249" y2="-192.46245701126048"/><line stroke="black" stroke-width="8" x1="-28.45300542654389" y1="-252.70910254535917" x2="-58.90538448394401" y2="-250.55361797774452"/><line stroke="black" stroke-width="8" x1="-28.45300542654389" y1="-252.70910254535917" x2="1.5509747923174197" y2="-260.10078175823"/><line stroke="black" stroke-width="8" x1="-78.40987069952197" y1="139.21408990261176" x2="-94.29925850328819" y2="114.0248310064828"/><line stroke="black" stroke-width="8" x1="-188.27990580528177" y1="-129.29095986989554" x2="-200.79195747519785" y2="-101.73865871172936"/><line stroke="black" stroke-width="8" x1="-188.27990580528177" y1="-129.29095986989554" x2="-197.2814382429537" y2="-159.03980327131129"/><line stroke="black" stroke-width="8" x1="-188.27990580528177" y1="-129.29095986989554" x2="-172.8927277284019" y2="-155.59598839439997"/><line stroke="black" stroke-width="8" x1="-200.79195747519785" y1="-101.73865871172936" x2="-178.23294107698507" y2="-81.86324621890661"/><line stroke="black" stroke-width="8" x1="198.27894775530442" y1="75.01775297440811" x2="224.20355231531317" y2="60.40872478332875"/><line stroke="black" stroke-width="8" x1="-129.84308941631366" y1="110.83010649202176" x2="-159.90883920530703" y2="107.68526464601722"/><line stroke="black" stroke-width="8" x1="224.36923192449598" y1="-82.24450171595682" x2="250.1775677156235" y2="-67.39397930711117"/><line stroke="black" stroke-width="8" x1="224.36923192449598" y1="-82.24450171595682" x2="202.40535832279465" y2="-102.528407238142"/><line stroke="black" stroke-width="8" x1="-195.45233399937905" y1="69.54470581114032" x2="-199.30115370300476" y2="99.46022121894632"/><line stroke="black" stroke-width="8" x1="153.1557786363559" y1="-63.66041835633963" x2="141.21314888411823" y2="-90.68808264076216"/><line stroke="black" stroke-width="8" x1="73.77069837321734" y1="128.18055880466915" x2="94.38463902918333" y2="106.53428722774778"/><line stroke="black" stroke-width="8" x1="-212.36884979193343" y1="-17.821414610424767" x2="-242.1328486917205" y2="-22.294946845971594"/><line stroke="black" stroke-width="8" x1="-212.36884979193343" y1="-17.821414610424767" x2="-222.7883271033975" y2="-45.781607182415335"/><line stroke="black" stroke-width="8" x1="40.772533023473315" y1="140.62599280506151" x2="21.48599555938042" y2="163.8791848302818"/><line stroke="black" stroke-width="8" x1="97.34808135352898" y1="226.3569554235125" x2="117.94545877276894" y2="203.16768445926542"/><line stroke="black" stroke-width="8" x1="97.34808135352898" y1="226.3569554235125" x2="75.83362435440915" y2="247.02648458148605"/><line stroke="black" stroke-width="8" x1="97.34808135352898" y1="226.3569554235125" x2="93.0449075110327" y2="196.14378118555706"/><line stroke="black" stroke-width="8" x1="97.34808135352898" y1="226.3569554235125" x2="127.60991408547667" y2="227.2835783241554"/><line stroke="black" stroke-width="8" x1="-38.84848056257517" y1="-8.168178161266844" x2="-46.797006105453384" y2="21.548057710937826"/><line stroke="black" stroke-width="8" x1="38.333485685880795" y1="197.40851827785747" x2="52.809347103137576" y2="170.53508227505185"/><line stroke="black" stroke-width="8" x1="38.333485685880795" y1="197.40851827785747" x2="68.47145795308747" y2="193.5921867203267"/><line stroke="black" stroke-width="8" x1="38.333485685880795" y1="197.40851827785747" x2="53.72856216673549" y2="223.23974208443929"/><line stroke="black" stroke-width="8" x1="86.89615914586248" y1="-199.530743677109" x2="114.46001763103652" y2="-211.5780177154269"/><line stroke="black" stroke-width="8" x1="133.4860250543915" y1="76.40257037462699" x2="119.53719358771713" y2="49.731028709347285"/><line stroke="black" stroke-width="8" x1="-162.90184482833584" y1="18.43247277278169" x2="-184.74326881130878" y2="39.44585433928673"/><line stroke="black" stroke-width="8" x1="110.60962207810721" y1="-28.586791910261727" x2="138.59341697041017" y2="-17.47960509311853"/><line stroke="black" stroke-width="8" x1="197.65963809981665" y1="10.113338457069732" x2="206.25961048586896" y2="38.996822106332"/><line stroke="black" stroke-width="8" x1="197.65963809981665" y1="10.113338457069732" x2="168.44299459596022" y2="4.189537655400336"/><line stroke="black" stroke-width="8" x1="152.36541524579238" y1="142.0993670642974" x2="160.72189211857457" y2="171.11201837891252"/><line stroke="black" stroke-width="8" x1="56.66335878478638" y1="-107.28136423043875" x2="42.140959344467085" y2="-81.10317406364798"/><line stroke="black" stroke-width="8" x1="56.66335878478638" y1="-107.28136423043875" x2="68.20582400357455" y2="-135.05745032815912"/><line stroke="black" stroke-width="8" x1="116.68072412616854" y1="132.57426793768303" x2="128.40507101510408" y2="104.98743942418312"/><line stroke="black" stroke-width="8" x1="116.68072412616854" y1="132.57426793768303" x2="131.47648668579407" y2="159.07741879116503"/><line stroke="black" stroke-width="8" x1="223.42503064426728" y1="123.7611968364692" x2="233.29142498351928" y2="95.38054911485945"/><line stroke="black" stroke-width="8" x1="-9.399789746975127" y1="-158.92790512833812" x2="-18.333624603220542" y2="-129.41554431454566"/><line stroke="black" stroke-width="8" x1="-9.399789746975127" y1="-158.92790512833812" x2="-37.99840160933882" y2="-169.77434936656005"/><line stroke="black" stroke-width="8" x1="-9.399789746975127" y1="-158.92790512833812" x2="17.0765714043982" y2="-145.23663129467184"/><line stroke="black" stroke-width="8" x1="-9.399789746975127" y1="-158.92790512833812" x2="-36.968121766188354" y2="-144.66988547442867"/><line stroke="black" stroke-width="8" x1="-161.2290392714592" y1="158.7670221807156" x2="-134.41272375059427" y2="172.69475111492363"/><line stroke="black" stroke-width="8" x1="-161.2290392714592" y1="158.7670221807156" x2="-155.59838003842225" y2="189.77923459147848"/><line stroke="black" stroke-width="8" x1="-161.2290392714592" y1="158.7670221807156" x2="-191.74683034767352" y2="160.02331860792808"/><line stroke="black" stroke-width="8" x1="-161.2290392714592" y1="158.7670221807156" x2="-179.50292293033183" y2="183.7493061751073"/><line stroke="black" stroke-width="8" x1="-191.74683034767352" y1="160.02331860792808" x2="-217.6108247855875" y2="144.64171679014214"/><line stroke="black" stroke-width="8" x1="-88.4660321647875" y1="63.010089796510826" x2="-73.43510806825839" y2="37.357167854306624"/><line stroke="black" stroke-width="8" x1="85.28445442085695" y1="-165.96890608698644" x2="111.64935926709693" y2="-180.41572210461385"/><line stroke="black" stroke-width="8" x1="81.81981659440332" y1="152.01391248775772" x2="106.51272147247123" y2="168.82338576817693"/><line stroke="black" stroke-width="8" x1="-240.4805097516152" y1="-83.63717605606101" x2="-251.12463561814394" y2="-55.371643384358435"/><line stroke="black" stroke-width="8" x1="234.47505212850345" y1="-112.38348412042387" x2="215.12776885873654" y2="-135.58377292505605"/><line stroke="black" stroke-width="8" x1="4.454106173212388" y1="204.23320143612307" x2="14.3752593132719" y2="232.1764962803689"/><line stroke="black" stroke-width="8" x1="-55.65299861378338" y1="116.21173386032171" x2="-71.49543579817549" y2="90.93265752550798"/><line stroke="black" stroke-width="8" x1="-55.65299861378338" y1="116.21173386032171" x2="-25.579135839646444" y2="118.74910317382037"/><line stroke="black" stroke-width="8" x1="-55.65299861378338" y1="116.21173386032171" x2="-43.927562680918044" y2="144.19028090251408"/><line stroke="black" stroke-width="8" x1="128.07758520987022" y1="-153.74540374933602" x2="126.62346115408539" y2="-123.10076920234344"/><line stroke="black" stroke-width="8" x1="17.956098129694322" y1="-24.978401726035262" x2="43.044466452316634" y2="-8.618796597630459"/><line stroke="black" stroke-width="8" x1="17.956098129694322" y1="-24.978401726035262" x2="9.767468116731598" y2="4.077440652308622"/><line stroke="black" stroke-width="8" x1="82.0841807453857" y1="28.937218275531396" x2="109.99740883381803" y2="17.80630629687069"/><line stroke="black" stroke-width="8" x1="106.95588824989451" y1="-59.439502650469485" x2="76.43531649531081" y2="-56.995575666459835"/><line stroke="black" stroke-width="8" x1="106.95588824989451" y1="-59.439502650469485" x2="83.57635328906333" y2="-79.99130693372734"/><line stroke="black" stroke-width="8" x1="106.95588824989451" y1="-59.439502650469485" x2="114.69004102047549" y2="-88.50992091064"/><line stroke="black" stroke-width="8" x1="183.42675899234047" y1="142.02544903441833" x2="162.84323703089044" y2="119.69337383052337"/><line stroke="black" stroke-width="8" x1="183.42675899234047" y1="142.02544903441833" x2="211.18449006878754" y2="152.37359527128694"/><line stroke="black" stroke-width="8" x1="35.23306445258622" y1="-217.79691697302664" x2="65.1725846043356" y2="-217.2757785594511"/><line stroke="black" stroke-width="8" x1="35.23306445258622" y1="-217.79691697302664" x2="40.69350515495038" y2="-247.5972086385797"/><line stroke="black" stroke-width="8" x1="43.54092536558062" y1="251.41755440313432" x2="14.088580288349236" y2="258.76582362356885"/><line stroke="black" stroke-width="8" x1="-230.49766649145474" y1="-112.40143472881054" x2="-218.52272081645498" y2="-139.9123483338959"/><line stroke="black" stroke-width="8" x1="-151.22602375479397" y1="-28.15464630238874" x2="-124.92200895859638" y2="-12.473910021524901"/><line stroke="black" stroke-width="8" x1="-151.22602375479397" y1="-28.15464630238874" x2="-180.3724999175691" y2="-20.731787645363287"/><line stroke="black" stroke-width="8" x1="251.99918777694202" y1="37.640125838194" x2="250.23071785003867" y2="67.80313946356793"/><line stroke="black" stroke-width="8" x1="109.99740883381803" y1="17.80630629687069" x2="140.10680789534385" y2="13.139508664299838"/><line stroke="black" stroke-width="8" x1="77.47838568170862" y1="53.75971786695105" x2="98.66774965026235" y2="75.84339184183735"/><line stroke="black" stroke-width="8" x1="-250.31248549774784" y1="23.024722286134438" x2="-260.1660918721598" y2="-5.106136840003118"/><line stroke="black" stroke-width="8" x1="187.76625685662054" y1="-184.05872469277617" x2="193.38138059467107" y2="-154.0776358047235"/><line stroke="black" stroke-width="8" x1="140.10680789534385" y1="13.139508664299838" x2="148.0420388479625" y2="42.080854249979886"/><line stroke="black" stroke-width="8" x1="9.767468116731598" y1="4.077440652308622" x2="34.09340156746492" y2="22.143951847785694"/><line stroke="black" stroke-width="8" x1="9.767468116731598" y1="4.077440652308622" x2="-16.703795619596864" y2="18.149633571995153"/><line stroke="black" stroke-width="8" x1="193.38138059467107" y1="-154.0776358047235" x2="168.631984795177" y2="-171.5548666802664"/><line stroke="black" stroke-width="8" x1="-65.12776425226282" y1="-2.532755319980193" x2="-93.4744617673355" y2="5.598561273505814"/><line stroke="black" stroke-width="8" x1="-75.94033450290792" y1="210.09534894806313" x2="-74.3589570347443" y2="177.93432571703292"/><line stroke="black" stroke-width="8" x1="-75.94033450290792" y1="210.09534894806313" x2="-80.29580047843169" y2="241.04951907510102"/><line stroke="black" stroke-width="8" x1="-75.94033450290792" y1="210.09534894806313" x2="-105.77448169122046" y2="197.11313020196818"/><line stroke="black" stroke-width="8" x1="-75.94033450290792" y1="210.09534894806313" x2="-45.23606467235921" y2="198.7045321793023"/><line stroke="black" stroke-width="8" x1="-75.94033450290792" y1="210.09534894806313" x2="-100.28741421801998" y2="230.91719721442774"/><line stroke="black" stroke-width="8" x1="-75.94033450290792" y1="210.09534894806313" x2="-93.40148880332936" y2="182.85166819454855"/><line stroke="black" stroke-width="8" x1="-75.94033450290792" y1="210.09534894806313" x2="-45.04724596741561" y2="217.114946515572"/><line stroke="black" stroke-width="8" x1="-75.94033450290792" y1="210.09534894806313" x2="-108.44533577317507" y2="214.35330560761983"/><line stroke="black" stroke-width="8" x1="-75.94033450290792" y1="210.09534894806313" x2="-56.097728577050944" y2="184.49459967388552"/><line stroke="black" stroke-width="8" x1="-75.94033450290792" y1="210.09534894806313" x2="-55.07013568157872" y2="238.0278321399086"/><line stroke="black" stroke-width="8" x1="54.571759013273336" y1="-185.82323698057922" x2="24.50654345533185" y2="-181.04203371484326"/><line stroke="black" stroke-width="8" x1="54.571759013273336" y1="-185.82323698057922" x2="47.84507926921514" y2="-156.57744973095683"/><line stroke="black" stroke-width="8" x1="-55.07013568157872" y1="238.0278321399086" x2="-23.471467706316314" y2="236.7856241213315"/><line stroke="black" stroke-width="8" x1="-55.07013568157872" y1="238.0278321399086" x2="-33.67425765582593" y2="259.88444626347547"/><line stroke="black" stroke-width="8" x1="2.8236482334858803" y1="-112.57599857871566" x2="31.655584124696865" y2="-120.93410134140284"/><line stroke="black" stroke-width="8" x1="2.8236482334858803" y1="-112.57599857871566" x2="11.125213863186723" y2="-84.0160373692002"/><line stroke="black" stroke-width="8" x1="99.2981857049698" y1="-139.64012495708522" x2="91.24213260721243" y2="-110.44107709866448"/><line stroke="black" stroke-width="8" x1="198.68186922756922" y1="107.88547810320021" x2="171.00727125005238" y2="95.78386309330614"/><line stroke="black" stroke-width="8" x1="-16.41459777060298" y1="-53.484821621788704" x2="-14.765732015674667" y2="-23.63632838786784"/><line stroke="black" stroke-width="8" x1="-16.41459777060298" y1="-53.484821621788704" x2="13.82317998034923" y2="-54.39583704368443"/><line stroke="black" stroke-width="8" x1="-16.41459777060298" y1="-53.484821621788704" x2="-18.504753490879253" y2="-83.9190682921454"/><line stroke="black" stroke-width="8" x1="-155.36928869705193" y1="-105.33580950062947" x2="-130.2912741250019" y2="-125.44068154552642"/><line stroke="black" stroke-width="8" x1="-155.36928869705193" y1="-105.33580950062947" x2="-153.27043730231128" y2="-135.50761857333453"/><line stroke="black" stroke-width="8" x1="-130.2912741250019" y1="-125.44068154552642" x2="-108.32679942708305" y2="-146.5308888274622"/><line stroke="black" stroke-width="8" x1="229.37503289243844" y1="-16.279606764269626" x2="229.66771469928258" y2="14.089371877447567"/><line stroke="black" stroke-width="8" x1="229.37503289243844" y1="-16.279606764269626" x2="224.8796120848365" y2="-46.35021222550221"/><line stroke="black" stroke-width="8" x1="229.37503289243844" y1="-16.279606764269626" x2="255.16565960275813" y2="0.2707924414300064"/><line stroke="black" stroke-width="8" x1="229.37503289243844" y1="-16.279606764269626" x2="199.96722527580212" y2="-20.96700831926236"/><line stroke="black" stroke-width="8" x1="229.37503289243844" y1="-16.279606764269626" x2="254.15902387581352" y2="-33.698450870290905"/><line stroke="black" stroke-width="8" x1="-53.90553855771946" y1="64.52579296575526" x2="-28.486792398472844" y2="48.85434670089027"/><line stroke="black" stroke-width="8" x1="-53.90553855771946" y1="64.52579296575526" x2="-31.232739516275984" y2="84.2674158397996"/><line stroke="black" stroke-width="8" x1="163.12602468606752" y1="-103.88970999419251" x2="180.063774117743" y2="-79.0029246037948"/><line stroke="black" stroke-width="8" x1="-112.99480104193036" y1="145.12944527453558" x2="-142.14580937996215" y2="136.6641620161027"/><line stroke="black" stroke-width="8" x1="70.295339159041" y1="-246.68172286415555" x2="99.6532377702153" y2="-238.61595081968355"/><line stroke="black" stroke-width="8" x1="177.82153209242352" y1="41.94479150328425" x2="166.16296387720521" y2="69.67895769191846"/><line stroke="black" stroke-width="8" x1="-244.53486386014984" y1="92.31132467297026" x2="-223.8154519349723" y2="70.8468063869061"/><line stroke="black" stroke-width="8" x1="142.48149614932566" y1="-218.202056362623" x2="144.59883978917472" y2="-188.75095825207893"/><line stroke="black" stroke-width="8" x1="154.01884500332855" y1="201.36573564615037" x2="180.90576347455018" y2="186.2138867279716"/><line stroke="black" stroke-width="8" x1="-141.33094270686593" y1="78.18101170150004" x2="-111.94780654364949" y2="86.27520725920077"/><line stroke="black" stroke-width="8" x1="-141.33094270686593" y1="78.18101170150004" x2="-146.7098116298467" y2="48.243193149717065"/><line stroke="black" stroke-width="8" x1="-141.33094270686593" y1="78.18101170150004" x2="-119.19266309268826" y2="56.754869308731685"/><line stroke="black" stroke-width="8" x1="-141.33094270686593" y1="78.18101170150004" x2="-171.26227512402565" y2="78.85649679988525"/><line stroke="black" stroke-width="8" x1="-87.89431808385771" y1="-76.49922774667179" x2="-102.94731765490675" y2="-47.523286767588765"/><line stroke="black" stroke-width="8" x1="-87.89431808385771" y1="-76.49922774667179" x2="-59.16662596150103" y2="-60.72987963598312"/><line stroke="black" stroke-width="8" x1="-87.89431808385771" y1="-76.49922774667179" x2="-122.72790534019472" y2="-77.88930230805586"/><line stroke="black" stroke-width="8" x1="-87.89431808385771" y1="-76.49922774667179" x2="-115.29481500646037" y2="-59.705543963336495"/><line stroke="black" stroke-width="8" x1="-87.89431808385771" y1="-76.49922774667179" x2="-111.83096128535038" y2="-96.67649202480072"/><line stroke="black" stroke-width="8" x1="-87.89431808385771" y1="-76.49922774667179" x2="-60.78833447495663" y2="-95.12805946409375"/><line stroke="black" stroke-width="8" x1="-87.89431808385771" y1="-76.49922774667179" x2="-70.84328708817819" y2="-47.913518312001735"/><line stroke="black" stroke-width="8" x1="-87.89431808385771" y1="-76.49922774667179" x2="-55.28507599767736" y2="-78.33389306949078"/><line stroke="black" stroke-width="8" x1="-87.89431808385771" y1="-76.49922774667179" x2="-74.28999811651094" y2="-105.38635295278927"/><line stroke="black" stroke-width="8" x1="-87.89431808385771" y1="-76.49922774667179" x2="-91.8899481754267" y2="-111.5424875238928"/><line stroke="black" stroke-width="8" x1="-87.89431808385771" y1="-76.49922774667179" x2="-86.62188081140539" y2="-43.368329190427694"/><line stroke="black" stroke-width="8" x1="-122.72790534019472" y1="-77.88930230805586" x2="-150.1354528114118" y2="-63.23900398857876"/><line stroke="black" stroke-width="8" x1="-91.8899481754267" y1="-111.5424875238928" x2="-73.77255022893605" y2="-137.855894430371"/><line stroke="black" stroke-width="8" x1="-187.9542084206335" y1="129.5075864872175" x2="-217.15908550126318" y2="118.6207537016832"/><line stroke="black" stroke-width="8" x1="-187.30671627959936" y1="-49.664284730766255" x2="-208.94482706862425" y2="-70.8818022766992"/></g><g stroke="#fff" stroke-width="1.5"><circle r="5" fill="#808080" cx="174.73477145456775" cy="-31.87946872476196"><title>HA634</title></circle><circle r="5" fill="#808080" cx="-110.7751926952215" cy="24.529675932122167"><title>KM745</title></circle><circle r="5" fill="#808080" cx="-121.02420099935944" cy="-190.20693415342868"><title>OZ181</title></circle><circle r="5" fill="#808080" cx="-143.20629371250433" cy="-169.38074091625649"><title>UC868</title></circle><circle r="5" fill="#808080" cx="-124.49808212291939" cy="-221.91702112944395"><title>WH677</title></circle><circle r="5" fill="#808080" cx="23.919571018406845" cy="100.58792027062634"><title>JC848</title></circle><circle r="5" fill="#808080" cx="7.434189002743294" cy="74.21471335544183"><title>HZ885</title></circle><circle r="5" fill="#808080" cx="38.742041927798134" cy="73.87667745052549"><title>RT325</title></circle><circle r="5" fill="#808080" cx="-218.34223173788243" cy="13.919175817697019"><title>BH906</title></circle><circle r="5" fill="#808080" cx="70.43099707782066" cy="-27.360721707335976"><title>AN177</title></circle><circle r="5" fill="#808080" cx="92.81312205055008" cy="-6.747410875071972"><title>QJ536</title></circle><circle r="5" fill="#808080" cx="-222.37726480173248" cy="43.30217228180756"><title>PB196</title></circle><circle r="5" fill="#808080" cx="153.85397286509303" cy="-142.7097610162861"><title>ON966</title></circle><circle r="5" fill="#808080" cx="-15.98259670658489" cy="153.21509800202307"><title>IW959</title></circle><circle r="5" fill="#808080" cx="-27.107367473925713" cy="-221.28132326812104"><title>CT231</title></circle><circle r="5" fill="#808080" cx="-28.45300542654389" cy="-252.70910254535917"><title>LY519</title></circle><circle r="5" fill="#808080" cx="-78.40987069952197" cy="139.21408990261176"><title>FY778</title></circle><circle r="5" fill="#808080" cx="-188.27990580528177" cy="-129.29095986989554"><title>QS379</title></circle><circle r="5" fill="#808080" cx="-200.79195747519785" cy="-101.73865871172936"><title>SY772</title></circle><circle r="5" fill="#808080" cx="198.27894775530442" cy="75.01775297440811"><title>IT343</title></circle><circle r="5" fill="#808080" cx="-129.84308941631366" cy="110.83010649202176"><title>ZU277</title></circle><circle r="5" fill="#808080" cx="224.36923192449598" cy="-82.24450171595682"><title>VD234</title></circle><circle r="5" fill="#808080" cx="-195.45233399937905" cy="69.54470581114032"><title>SE116</title></circle><circle r="5" fill="#808080" cx="153.1557786363559" cy="-63.66041835633963"><title>CB351</title></circle><circle r="5" fill="#808080" cx="73.77069837321734" cy="128.18055880466915"><title>XP609</title></circle><circle r="5" fill="#808080" cx="-212.36884979193343" cy="-17.821414610424767"><title>FI685</title></circle><circle r="5" fill="#808080" cx="40.772533023473315" cy="140.62599280506151"><title>DO502</title></circle><circle r="5" fill="#808080" cx="97.34808135352898" cy="226.3569554235125"><title>LI717</title></circle><circle r="5" fill="#808080" cx="-38.84848056257517" cy="-8.168178161266844"><title>NQ103</title></circle><circle r="5" fill="#808080" cx="38.333485685880795" cy="197.40851827785747"><title>TO761</title></circle><circle r="5" fill="#808080" cx="86.89615914586248" cy="-199.530743677109"><title>XL921</title></circle><circle r="5" fill="#808080" cx="133.4860250543915" cy="76.40257037462699"><title>FB819</title></circle><circle r="5" fill="#808080" cx="-162.90184482833584" cy="18.43247277278169"><title>ON148</title></circle><circle r="5" fill="#808080" cx="110.60962207810721" cy="-28.586791910261727"><title>YJ320</title></circle><circle r="5" fill="#808080" cx="197.65963809981665" cy="10.113338457069732"><title>ST649</title></circle><circle r="5" fill="#808080" cx="152.36541524579238" cy="142.0993670642974"><title>QM627</title></circle><circle r="5" fill="#808080" cx="56.66335878478638" cy="-107.28136423043875"><title>GF785</title></circle><circle r="5" fill="#808080" cx="116.68072412616854" cy="132.57426793768303"><title>GR120</title></circle><circle r="5" fill="#808080" cx="223.42503064426728" cy="123.7611968364692"><title>GO218</title></circle><circle r="5" fill="#808080" cx="-9.399789746975127" cy="-158.92790512833812"><title>TR290</title></circle><circle r="5" fill="#808080" cx="-161.2290392714592" cy="158.7670221807156"><title>KQ310</title></circle><circle r="5" fill="#808080" cx="-191.74683034767352" cy="160.02331860792808"><title>PG781</title></circle><circle r="5" fill="#808080" cx="-88.4660321647875" cy="63.010089796510826"><title>KU419</title></circle><circle r="5" fill="#808080" cx="85.28445442085695" cy="-165.96890608698644"><title>CH521</title></circle><circle r="5" fill="#808080" cx="81.81981659440332" cy="152.01391248775772"><title>IW852</title></circle><circle r="5" fill="#808080" cx="-240.4805097516152" cy="-83.63717605606101"><title>WP288</title></circle><circle r="5" fill="#808080" cx="234.47505212850345" cy="-112.38348412042387"><title>RQ344</title></circle><circle r="5" fill="#808080" cx="4.454106173212388" cy="204.23320143612307"><title>SW913</title></circle><circle r="5" fill="#808080" cx="-55.65299861378338" cy="116.21173386032171"><title>FT538</title></circle><circle r="5" fill="#808080" cx="128.07758520987022" cy="-153.74540374933602"><title>BA501</title></circle><circle r="5" fill="#808080" cx="17.956098129694322" cy="-24.978401726035262"><title>EN721</title></circle><circle r="5" fill="#808080" cx="82.0841807453857" cy="28.937218275531396"><title>CL992</title></circle><circle r="5" fill="#808080" cx="106.95588824989451" cy="-59.439502650469485"><title>GR516</title></circle><circle r="5" fill="#808080" cx="183.42675899234047" cy="142.02544903441833"><title>KE138</title></circle><circle r="5" fill="#808080" cx="35.23306445258622" cy="-217.79691697302664"><title>CN769</title></circle><circle r="5" fill="#808080" cx="43.54092536558062" cy="251.41755440313432"><title>IA113</title></circle><circle r="5" fill="#808080" cx="-230.49766649145474" cy="-112.40143472881054"><title>BD289</title></circle><circle r="5" fill="#808080" cx="-151.22602375479397" cy="-28.15464630238874"><title>DQ335</title></circle><circle r="5" fill="#808080" cx="251.99918777694202" cy="37.640125838194"><title>QQ439</title></circle><circle r="5" fill="#808080" cx="109.99740883381803" cy="17.80630629687069"><title>JF439</title></circle><circle r="5" fill="#808080" cx="77.47838568170862" cy="53.75971786695105"><title>LD489</title></circle><circle r="5" fill="#808080" cx="-250.31248549774784" cy="23.024722286134438"><title>CF543</title></circle><circle r="5" fill="#808080" cx="187.76625685662054" cy="-184.05872469277617"><title>FT869</title></circle><circle r="5" fill="#808080" cx="140.10680789534385" cy="13.139508664299838"><title>RH657</title></circle><circle r="5" fill="#808080" cx="9.767468116731598" cy="4.077440652308622"><title>PW898</title></circle><circle r="5" fill="#808080" cx="193.38138059467107" cy="-154.0776358047235"><title>PB638</title></circle><circle r="5" fill="#808080" cx="-65.12776425226282" cy="-2.532755319980193"><title>RQ982</title></circle><circle r="5" fill="#808080" cx="-75.94033450290792" cy="210.09534894806313"><title>IQ990</title></circle><circle r="5" fill="#808080" cx="54.571759013273336" cy="-185.82323698057922"><title>WF998</title></circle><circle r="5" fill="#808080" cx="-55.07013568157872" cy="238.0278321399086"><title>KJ216</title></circle><circle r="5" fill="#808080" cx="2.8236482334858803" cy="-112.57599857871566"><title>XB594</title></circle><circle r="5" fill="#808080" cx="99.2981857049698" cy="-139.64012495708522"><title>AO354</title></circle><circle r="5" fill="#808080" cx="198.68186922756922" cy="107.88547810320021"><title>VK826</title></circle><circle r="5" fill="#808080" cx="-16.41459777060298" cy="-53.484821621788704"><title>SE930</title></circle><circle r="5" fill="#808080" cx="-155.36928869705193" cy="-105.33580950062947"><title>ZE674</title></circle><circle r="5" fill="#808080" cx="-130.2912741250019" cy="-125.44068154552642"><title>AL209</title></circle><circle r="5" fill="#808080" cx="229.37503289243844" cy="-16.279606764269626"><title>GJ377</title></circle><circle r="5" fill="#808080" cx="-53.90553855771946" cy="64.52579296575526"><title>YO171</title></circle><circle r="5" fill="#808080" cx="163.12602468606752" cy="-103.88970999419251"><title>FP269</title></circle><circle r="5" fill="#808080" cx="-112.99480104193036" cy="145.12944527453558"><title>ER691</title></circle><circle r="5" fill="#808080" cx="70.295339159041" cy="-246.68172286415555"><title>GU402</title></circle><circle r="5" fill="#808080" cx="177.82153209242352" cy="41.94479150328425"><title>SD440</title></circle><circle r="5" fill="#808080" cx="-244.53486386014984" cy="92.31132467297026"><title>FQ437</title></circle><circle r="5" fill="#808080" cx="142.48149614932566" cy="-218.202056362623"><title>VZ336</title></circle><circle r="5" fill="#808080" cx="154.01884500332855" cy="201.36573564615037"><title>OD267</title></circle><circle r="5" fill="#808080" cx="-141.33094270686593" cy="78.18101170150004"><title>HX316</title></circle><circle r="5" fill="#808080" cx="-87.89431808385771" cy="-76.49922774667179"><title>CH001</title></circle><circle r="5" fill="#808080" cx="-122.72790534019472" cy="-77.88930230805586"><title>PB479</title></circle><circle r="5" fill="#808080" cx="-91.8899481754267" cy="-111.5424875238928"><title>LY189</title></circle><circle r="5" fill="#808080" cx="-187.9542084206335" cy="129.5075864872175"><title>BA648</title></circle><circle r="5" fill="#808080" cx="-187.30671627959936" cy="-49.664284730766255"><title>JS473</title></circle><circle r="5" fill="#808080" cx="195.75279107685975" cy="-53.785538835081766"><title>IG290</title></circle><circle r="5" fill="#808080" cx="145.7062039592119" cy="-41.38564416451998"><title>GP180</title></circle><circle r="5" fill="#808080" cx="-137.29288706667367" cy="10.002961198164758"><title>XV777</title></circle><circle r="5" fill="#808080" cx="-99.14574600766976" cy="-212.17069089260644"><title>UY252</title></circle><circle r="5" fill="#808080" cx="-97.59802611357097" cy="-170.116066508486"><title>MW141</title></circle><circle r="5" fill="#808080" cx="-148.22098402988502" cy="-204.23492996844138"><title>AR462</title></circle><circle r="5" fill="#808080" cx="-89.57229221109706" cy="-190.50124737318868"><title>XC636</title></circle><circle r="5" fill="#808080" cx="-168.93418963427132" cy="-187.05824386610672"><title>ZJ935</title></circle><circle r="5" fill="#808080" cx="-98.72794639650336" cy="-239.39798480831863"><title>IP573</title></circle><circle r="5" fill="#808080" cx="14.981136291838663" cy="129.38958530396556"><title>MP917</title></circle><circle r="5" fill="#808080" cx="53.45013986804564" cy="107.35975416344021"><title>YX864</title></circle><circle r="5" fill="#808080" cx="-0.09892639262385165" cy="44.86243208626188"><title>IS758</title></circle><circle r="5" fill="#808080" cx="27.644877365013308" cy="50.8906943057038"><title>CR226</title></circle><circle r="5" fill="#808080" cx="-6.376779116260202" cy="100.71556868612785"><title>JH885</title></circle><circle r="5" fill="#808080" cx="68.34169961124923" cy="78.81599441317539"><title>OC739</title></circle><circle r="5" fill="#808080" cx="-188.85639333295396" cy="8.536011877536708"><title>UW109</title></circle><circle r="5" fill="#808080" cx="46.39011368284496" cy="-45.85496079724394"><title>ZG263</title></circle><circle r="5" fill="#808080" cx="66.67270918131727" cy="8.501934343257734"><title>WJ381</title></circle><circle r="5" fill="#808080" cx="-251.52785881174927" cy="52.12189976900203"><title>QC901</title></circle><circle r="5" fill="#808080" cx="179.79536986942296" cy="-127.66647335200011"><title>UX253</title></circle><circle r="5" fill="#808080" cx="-3.5586210586297358" cy="180.1597648837558"><title>EF898</title></circle><circle r="5" fill="#808080" cx="-57.91827952972964" cy="-222.38020100578015"><title>WU531</title></circle><circle r="5" fill="#808080" cx="1.948216866800908" cy="-210.32386679434205"><title>NO557</title></circle><circle r="5" fill="#808080" cx="-48.055962889383714" cy="-198.46958437561386"><title>UE543</title></circle><circle r="5" fill="#808080" cx="0.9015837338093063" cy="-234.13240984417226"><title>YC852</title></circle><circle r="5" fill="#808080" cx="-15.699252057296249" cy="-192.46245701126048"><title>ID404</title></circle><circle r="5" fill="#808080" cx="-58.90538448394401" cy="-250.55361797774452"><title>ML216</title></circle><circle r="5" fill="#808080" cx="1.5509747923174197" cy="-260.10078175823"><title>QQ131</title></circle><circle r="5" fill="#808080" cx="-94.29925850328819" cy="114.0248310064828"><title>ZZ198</title></circle><circle r="5" fill="#808080" cx="-197.2814382429537" cy="-159.03980327131129"><title>YS610</title></circle><circle r="5" fill="#808080" cx="-172.8927277284019" cy="-155.59598839439997"><title>GH467</title></circle><circle r="5" fill="#808080" cx="-178.23294107698507" cy="-81.86324621890661"><title>HB571</title></circle><circle r="5" fill="#808080" cx="224.20355231531317" cy="60.40872478332875"><title>ZP938</title></circle><circle r="5" fill="#808080" cx="-159.90883920530703" cy="107.68526464601722"><title>TY704</title></circle><circle r="5" fill="#808080" cx="250.1775677156235" cy="-67.39397930711117"><title>CD925</title></circle><circle r="5" fill="#808080" cx="202.40535832279465" cy="-102.528407238142"><title>GG121</title></circle><circle r="5" fill="#808080" cx="-199.30115370300476" cy="99.46022121894632"><title>OJ809</title></circle><circle r="5" fill="#808080" cx="141.21314888411823" cy="-90.68808264076216"><title>NK361</title></circle><circle r="5" fill="#808080" cx="94.38463902918333" cy="106.53428722774778"><title>OE677</title></circle><circle r="5" fill="#808080" cx="-242.1328486917205" cy="-22.294946845971594"><title>JD955</title></circle><circle r="5" fill="#808080" cx="-222.7883271033975" cy="-45.781607182415335"><title>OD818</title></circle><circle r="5" fill="#808080" cx="21.48599555938042" cy="163.8791848302818"><title>AZ415</title></circle><circle r="5" fill="#808080" cx="117.94545877276894" cy="203.16768445926542"><title>MT734</title></circle><circle r="5" fill="#808080" cx="75.83362435440915" cy="247.02648458148605"><title>SU254</title></circle><circle r="5" fill="#808080" cx="93.0449075110327" cy="196.14378118555706"><title>GI237</title></circle><circle r="5" fill="#808080" cx="127.60991408547667" cy="227.2835783241554"><title>BS479</title></circle><circle r="5" fill="#808080" cx="-46.797006105453384" cy="21.548057710937826"><title>LF637</title></circle><circle r="5" fill="#808080" cx="52.809347103137576" cy="170.53508227505185"><title>RP349</title></circle><circle r="5" fill="#808080" cx="68.47145795308747" cy="193.5921867203267"><title>YN141</title></circle><circle r="5" fill="#808080" cx="53.72856216673549" cy="223.23974208443929"><title>MF760</title></circle><circle r="5" fill="#808080" cx="114.46001763103652" cy="-211.5780177154269"><title>SF241</title></circle><circle r="5" fill="#808080" cx="119.53719358771713" cy="49.731028709347285"><title>PY661</title></circle><circle r="5" fill="#808080" cx="-184.74326881130878" cy="39.44585433928673"><title>NK138</title></circle><circle r="5" fill="#808080" cx="138.59341697041017" cy="-17.47960509311853"><title>WA731</title></circle><circle r="5" fill="#808080" cx="206.25961048586896" cy="38.996822106332"><title>TQ579</title></circle><circle r="5" fill="#808080" cx="168.44299459596022" cy="4.189537655400336"><title>GR454</title></circle><circle r="5" fill="#808080" cx="160.72189211857457" cy="171.11201837891252"><title>GE298</title></circle><circle r="5" fill="#808080" cx="42.140959344467085" cy="-81.10317406364798"><title>KA942</title></circle><circle r="5" fill="#808080" cx="68.20582400357455" cy="-135.05745032815912"><title>MK800</title></circle><circle r="5" fill="#808080" cx="128.40507101510408" cy="104.98743942418312"><title>KB772</title></circle><circle r="5" fill="#808080" cx="131.47648668579407" cy="159.07741879116503"><title>FT679</title></circle><circle r="5" fill="#808080" cx="233.29142498351928" cy="95.38054911485945"><title>QJ495</title></circle><circle r="5" fill="#808080" cx="-18.333624603220542" cy="-129.41554431454566"><title>TN949</title></circle><circle r="5" fill="#808080" cx="-37.99840160933882" cy="-169.77434936656005"><title>YU725</title></circle><circle r="5" fill="#808080" cx="17.0765714043982" cy="-145.23663129467184"><title>YQ341</title></circle><circle r="5" fill="#808080" cx="-36.968121766188354" cy="-144.66988547442867"><title>CU979</title></circle><circle r="5" fill="#808080" cx="-134.41272375059427" cy="172.69475111492363"><title>RO194</title></circle><circle r="5" fill="#808080" cx="-155.59838003842225" cy="189.77923459147848"><title>BA477</title></circle><circle r="5" fill="#808080" cx="-179.50292293033183" cy="183.7493061751073"><title>WM391</title></circle><circle r="5" fill="#808080" cx="-217.6108247855875" cy="144.64171679014214"><title>FX694</title></circle><circle r="5" fill="#808080" cx="-73.43510806825839" cy="37.357167854306624"><title>AK199</title></circle><circle r="5" fill="#808080" cx="111.64935926709693" cy="-180.41572210461385"><title>EC101</title></circle><circle r="5" fill="#808080" cx="106.51272147247123" cy="168.82338576817693"><title>XB825</title></circle><circle r="5" fill="#808080" cx="-251.12463561814394" cy="-55.371643384358435"><title>VT858</title></circle><circle r="5" fill="#808080" cx="215.12776885873654" cy="-135.58377292505605"><title>NZ740</title></circle><circle r="5" fill="#808080" cx="14.3752593132719" cy="232.1764962803689"><title>PQ411</title></circle><circle r="5" fill="#808080" cx="-71.49543579817549" cy="90.93265752550798"><title>MA489</title></circle><circle r="5" fill="#808080" cx="-25.579135839646444" cy="118.74910317382037"><title>VV705</title></circle><circle r="5" fill="#808080" cx="-43.927562680918044" cy="144.19028090251408"><title>NX270</title></circle><circle r="5" fill="#808080" cx="126.62346115408539" cy="-123.10076920234344"><title>RK889</title></circle><circle r="5" fill="#808080" cx="43.044466452316634" cy="-8.618796597630459"><title>VL444</title></circle><circle r="5" fill="#808080" cx="76.43531649531081" cy="-56.995575666459835"><title>YO672</title></circle><circle r="5" fill="#808080" cx="83.57635328906333" cy="-79.99130693372734"><title>BL714</title></circle><circle r="5" fill="#808080" cx="114.69004102047549" cy="-88.50992091064"><title>NP321</title></circle><circle r="5" fill="#808080" cx="162.84323703089044" cy="119.69337383052337"><title>LR356</title></circle><circle r="5" fill="#808080" cx="211.18449006878754" cy="152.37359527128694"><title>PS273</title></circle><circle r="5" fill="#808080" cx="65.1725846043356" cy="-217.2757785594511"><title>ZU913</title></circle><circle r="5" fill="#808080" cx="40.69350515495038" cy="-247.5972086385797"><title>VG381</title></circle><circle r="5" fill="#808080" cx="14.088580288349236" cy="258.76582362356885"><title>FW741</title></circle><circle r="5" fill="#808080" cx="-218.52272081645498" cy="-139.9123483338959"><title>GA490</title></circle><circle r="5" fill="#808080" cx="-124.92200895859638" cy="-12.473910021524901"><title>MA797</title></circle><circle r="5" fill="#808080" cx="-180.3724999175691" cy="-20.731787645363287"><title>TI391</title></circle><circle r="5" fill="#808080" cx="250.23071785003867" cy="67.80313946356793"><title>VZ664</title></circle><circle r="5" fill="#808080" cx="98.66774965026235" cy="75.84339184183735"><title>WX338</title></circle><circle r="5" fill="#808080" cx="-260.1660918721598" cy="-5.106136840003118"><title>TR873</title></circle><circle r="5" fill="#808080" cx="148.0420388479625" cy="42.080854249979886"><title>ST977</title></circle><circle r="5" fill="#808080" cx="34.09340156746492" cy="22.143951847785694"><title>GH602</title></circle><circle r="5" fill="#808080" cx="-16.703795619596864" cy="18.149633571995153"><title>OC631</title></circle><circle r="5" fill="#808080" cx="168.631984795177" cy="-171.5548666802664"><title>WR662</title></circle><circle r="5" fill="#808080" cx="-93.4744617673355" cy="5.598561273505814"><title>TJ223</title></circle><circle r="5" fill="#808080" cx="-74.3589570347443" cy="177.93432571703292"><title>RT165</title></circle><circle r="5" fill="#808080" cx="-80.29580047843169" cy="241.04951907510102"><title>LH430</title></circle><circle r="5" fill="#808080" cx="-105.77448169122046" cy="197.11313020196818"><title>BI720</title></circle><circle r="5" fill="#808080" cx="-45.23606467235921" cy="198.7045321793023"><title>BI957</title></circle><circle r="5" fill="#808080" cx="-100.28741421801998" cy="230.91719721442774"><title>BH553</title></circle><circle r="5" fill="#808080" cx="-93.40148880332936" cy="182.85166819454855"><title>LB307</title></circle><circle r="5" fill="#808080" cx="-45.04724596741561" cy="217.114946515572"><title>ZK279</title></circle><circle r="5" fill="#808080" cx="-108.44533577317507" cy="214.35330560761983"><title>FV483</title></circle><circle r="5" fill="#808080" cx="-56.097728577050944" cy="184.49459967388552"><title>PV664</title></circle><circle r="5" fill="#808080" cx="24.50654345533185" cy="-181.04203371484326"><title>YR694</title></circle><circle r="5" fill="#808080" cx="47.84507926921514" cy="-156.57744973095683"><title>KM334</title></circle><circle r="5" fill="#808080" cx="-23.471467706316314" cy="236.7856241213315"><title>CM854</title></circle><circle r="5" fill="#808080" cx="-33.67425765582593" cy="259.88444626347547"><title>LK483</title></circle><circle r="5" fill="#808080" cx="31.655584124696865" cy="-120.93410134140284"><title>MC155</title></circle><circle r="5" fill="#808080" cx="11.125213863186723" cy="-84.0160373692002"><title>CF980</title></circle><circle r="5" fill="#808080" cx="91.24213260721243" cy="-110.44107709866448"><title>MW828</title></circle><circle r="5" fill="#808080" cx="171.00727125005238" cy="95.78386309330614"><title>MH463</title></circle><circle r="5" fill="#808080" cx="-14.765732015674667" cy="-23.63632838786784"><title>QW737</title></circle><circle r="5" fill="#808080" cx="13.82317998034923" cy="-54.39583704368443"><title>GQ457</title></circle><circle r="5" fill="#808080" cx="-18.504753490879253" cy="-83.9190682921454"><title>QG478</title></circle><circle r="5" fill="#808080" cx="-153.27043730231128" cy="-135.50761857333453"><title>MH914</title></circle><circle r="5" fill="#808080" cx="-108.32679942708305" cy="-146.5308888274622"><title>OE917</title></circle><circle r="5" fill="#808080" cx="229.66771469928258" cy="14.089371877447567"><title>TM821</title></circle><circle r="5" fill="#808080" cx="224.8796120848365" cy="-46.35021222550221"><title>GN367</title></circle><circle r="5" fill="#808080" cx="255.16565960275813" cy="0.2707924414300064"><title>RN428</title></circle><circle r="5" fill="#808080" cx="199.96722527580212" cy="-20.96700831926236"><title>FS489</title></circle><circle r="5" fill="#808080" cx="254.15902387581352" cy="-33.698450870290905"><title>WS317</title></circle><circle r="5" fill="#808080" cx="-28.486792398472844" cy="48.85434670089027"><title>ZN918</title></circle><circle r="5" fill="#808080" cx="-31.232739516275984" cy="84.2674158397996"><title>VM767</title></circle><circle r="5" fill="#808080" cx="180.063774117743" cy="-79.0029246037948"><title>FG336</title></circle><circle r="5" fill="#808080" cx="-142.14580937996215" cy="136.6641620161027"><title>FO795</title></circle><circle r="5" fill="#808080" cx="99.6532377702153" cy="-238.61595081968355"><title>FT281</title></circle><circle r="5" fill="#808080" cx="166.16296387720521" cy="69.67895769191846"><title>ZF257</title></circle><circle r="5" fill="#808080" cx="-223.8154519349723" cy="70.8468063869061"><title>CC647</title></circle><circle r="5" fill="#808080" cx="144.59883978917472" cy="-188.75095825207893"><title>QH864</title></circle><circle r="5" fill="#808080" cx="180.90576347455018" cy="186.2138867279716"><title>QP938</title></circle><circle r="5" fill="#808080" cx="-111.94780654364949" cy="86.27520725920077"><title>AT823</title></circle><circle r="5" fill="#808080" cx="-146.7098116298467" cy="48.243193149717065"><title>TZ315</title></circle><circle r="5" fill="#808080" cx="-119.19266309268826" cy="56.754869308731685"><title>WB911</title></circle><circle r="5" fill="#808080" cx="-171.26227512402565" cy="78.85649679988525"><title>ML189</title></circle><circle r="5" fill="#808080" cx="-102.94731765490675" cy="-47.523286767588765"><title>ZQ499</title></circle><circle r="5" fill="#808080" cx="-59.16662596150103" cy="-60.72987963598312"><title>YU251</title></circle><circle r="5" fill="#808080" cx="-115.29481500646037" cy="-59.705543963336495"><title>LH171</title></circle><circle r="5" fill="#808080" cx="-111.83096128535038" cy="-96.67649202480072"><title>LL232</title></circle><circle r="5" fill="#808080" cx="-60.78833447495663" cy="-95.12805946409375"><title>RQ491</title></circle><circle r="5" fill="#808080" cx="-70.84328708817819" cy="-47.913518312001735"><title>IY775</title></circle><circle r="5" fill="#808080" cx="-55.28507599767736" cy="-78.33389306949078"><title>JM835</title></circle><circle r="5" fill="#808080" cx="-74.28999811651094" cy="-105.38635295278927"><title>JB487</title></circle><circle r="5" fill="#808080" cx="-86.62188081140539" cy="-43.368329190427694"><title>FA842</title></circle><circle r="5" fill="#808080" cx="-150.1354528114118" cy="-63.23900398857876"><title>JS787</title></circle><circle r="5" fill="#808080" cx="-73.77255022893605" cy="-137.855894430371"><title>AN966</title></circle><circle r="5" fill="#808080" cx="-217.15908550126318" cy="118.6207537016832"><title>FM143</title></circle><circle r="5" fill="#808080" cx="-208.94482706862425" cy="-70.8818022766992"><title>BN442</title></circle></g></svg>