<svg viewBox="-477,-400,954,800" xmlns="http://www.w3.org/2000/svg" xmlns:xlink="http://www.w3.org/1999/xlink"><g><line stroke="#B6C649" stroke-width="8" x1="173.70757481593108" y1="-29.798465005631044" x2="192.1447983632228" y2="-53.73082050261097"/><line stroke="#B6C649" stroke-width="8" x1="173.70757481593108" y1="-29.798465005631044" x2="145.22691617012183" y2="-40.77388756979555"/><line stroke="#D16666" stroke-width="8" x1="-115.01321526777197" y1="22.425315760177234" x2="-142.25215303784367" y2="9.182563609571623"/><line stroke="#B6C649" stroke-width="8" x1="-118.90932588479642" y1="-192.028281568616" x2="-94.54152879976847" y2="-210.77149765814266"/><line stroke="#B6C649" stroke-width="8" x1="-118.90932588479642" y1="-192.028281568616" x2="-108.30347007451542" y2="-164.13398162612847"/><line stroke="#B6C649" stroke-width="8" x1="-118.90932588479642" y1="-192.028281568616" x2="-122.5992684107393" y2="-222.9621866657323"/><line stroke="#B6C649" stroke-width="8" x1="-118.90932588479642" y1="-192.028281568616" x2="-146.01950741298535" y2="-205.724560846243"/><line stroke="#B6C649" stroke-width="8" x1="-118.90932588479642" y1="-192.028281568616" x2="-88.61131600865163" y2="-184.55858173728924"/><line stroke="#B6C649" stroke-width="8" x1="-118.90932588479642" y1="-192.028281568616" x2="-143.6452971821856" y2="-173.23591801134586"/><line stroke="#B6C649" stroke-width="8" x1="-143.6452971821856" y1="-173.23591801134586" x2="-169.53983100493312" y2="-190.26381956849204"/><line stroke="#B6C649" stroke-width="8" x1="-122.5992684107393" y1="-222.9621866657323" x2="-96.82379498322051" y2="-239.7945274528405"/><line stroke="#B6C649" stroke-width="8" x1="22.919686643645516" y1="99.84491815633012" x2="11.863777566468844" y2="128.01395785742974"/><line stroke="#B6C649" stroke-width="8" x1="22.919686643645516" y1="99.84491815633012" x2="51.55818685830854" y2="109.92413901045364"/><line stroke="#B6C649" stroke-width="8" x1="22.919686643645516" y1="99.84491815633012" x2="6.86440941314999" y2="73.20245599850186"/><line stroke="#B6C649" stroke-width="8" x1="6.86440941314999" y1="73.20245599850186" x2="2.97682570632583" y2="43.01219275548485"/><line stroke="#B6C649" stroke-width="8" x1="6.86440941314999" y1="73.20245599850186" x2="38.156849320384055" y2="73.58615085261565"/><line stroke="#B6C649" stroke-width="8" x1="6.86440941314999" y1="73.20245599850186" x2="28.17313922362775" y2="50.483806625779074"/><line stroke="#B6C649" stroke-width="8" x1="6.86440941314999" y1="73.20245599850186" x2="-6.75434838310757" y2="100.03675557331363"/><line stroke="#B6C649" stroke-width="8" x1="38.156849320384055" y1="73.58615085261565" x2="66.37799055098732" y2="84.35548850239513"/><line stroke="#D16666" stroke-width="8" x1="-213.9074332724493" y1="9.815034364015895" x2="-183.91627491354913" y2="8.261639061351454"/><line stroke="#B6C649" stroke-width="8" x1="72.5245381324937" y1="-22.83801662944506" x2="93.8218141148783" y2="-1.8179796127030783"/><line stroke="#B6C649" stroke-width="8" x1="72.5245381324937" y1="-22.83801662944506" x2="48.992373368919495" y2="-42.2685581430159"/><line stroke="#B6C649" stroke-width="8" x1="93.8218141148783" y1="-1.8179796127030783" x2="66.96255041090973" y2="12.83756546762723"/><line stroke="#B6C649" stroke-width="8" x1="-224.22945300469547" y1="40.365604166681905" x2="-254.02478580103192" y2="46.429917526520335"/><line stroke="#B6C649" stroke-width="8" x1="156.52806661517002" y1="-141.8708575199539" x2="180.08171158659235" y2="-123.3500483011265"/><line stroke="#D16666" stroke-width="8" x1="-18.780304786622267" y1="149.42103916988506" x2="-6.8459358054542" y2="176.8323262358493"/><line stroke="#B6C649" stroke-width="8" x1="-28.331749360285365" y1="-220.99118039277482" x2="-58.73149691423207" y2="-226.06038338734044"/><line stroke="#B6C649" stroke-width="8" x1="-28.331749360285365" y1="-220.99118039277482" x2="0.5135961047360735" y2="-209.51592330603867"/><line stroke="#B6C649" stroke-width="8" x1="-28.331749360285365" y1="-220.99118039277482" x2="-50.96155584967004" y2="-199.84468676268807"/><line stroke="#B6C649" stroke-width="8" x1="-28.331749360285365" y1="-220.99118039277482" x2="-25.467593669992542" y2="-252.61540034548977"/><line stroke="#B6C649" stroke-width="8" x1="-28.331749360285365" y1="-220.99118039277482" x2="0.05813714217800353" y2="-233.14008896906995"/><line stroke="#B6C649" stroke-width="8" x1="-28.331749360285365" y1="-220.99118039277482" x2="-17.77540641083239" y2="-192.02959648465"/><line stroke="#B6C649" stroke-width="8" x1="-25.467593669992542" y1="-252.61540034548977" x2="-56.07054772342812" y2="-252.68779728405306"/><line stroke="#B6C649" stroke-width="8" x1="-25.467593669992542" y1="-252.61540034548977" x2="4.737244193446999" y2="-259.38559929462184"/><line stroke="#D16666" stroke-width="8" x1="-86.42722529189355" y1="139.74706950691427" x2="-97.6937365845681" y2="112.06463828105585"/><line stroke="#D16666" stroke-width="8" x1="-187.52241944458135" y1="-130.53340496497003" x2="-197.52871258042012" y2="-102.48713596636861"/><line stroke="#D16666" stroke-width="8" x1="-187.52241944458135" y1="-130.53340496497003" x2="-196.00069769313188" y2="-160.27395294787573"/><line stroke="#D16666" stroke-width="8" x1="-187.52241944458135" y1="-130.53340496497003" x2="-171.25696329038047" y2="-156.29447191844037"/><line stroke="#B6C649" stroke-width="8" x1="-197.52871258042012" y1="-102.48713596636861" x2="-175.53925807750255" y2="-81.88127082455642"/><line stroke="#D16666" stroke-width="8" x1="200.18045753758673" y1="76.21857753419978" x2="225.10122661318525" y2="60.04148780273998"/><line stroke="#B6C649" stroke-width="8" x1="-133.35891129591988" y1="109.59949631549362" x2="-163.60249005616035" y2="107.54812509461397"/><line stroke="#B6C649" stroke-width="8" x1="226.85163654348128" y1="-82.86063767990296" x2="251.18624937092068" y2="-66.39023082545589"/><line stroke="#B6C649" stroke-width="8" x1="226.85163654348128" y1="-82.86063767990296" x2="202.4691388991821" y2="-99.9947481739959"/><line stroke="#B6C649" stroke-width="8" x1="-197.3544655684781" y1="71.10534870330548" x2="-205.07627644730673" y2="99.32584444536404"/><line stroke="#B6C649" stroke-width="8" x1="151.40992095831498" y1="-63.51875000277521" x2="137.34286234129843" y2="-89.35269151770767"/><line stroke="#B6C649" stroke-width="8" x1="73.75660141586276" y1="133.5698634360224" x2="92.93943649256981" y2="110.73305432070265"/><line stroke="#B6C649" stroke-width="8" x1="-210.84736711312416" y1="-19.71349264841327" x2="-240.5818478128207" y2="-24.512474233944616"/><line stroke="#B6C649" stroke-width="8" x1="-210.84736711312416" y1="-19.71349264841327" x2="-221.19924572988353" y2="-47.787054539374296"/><line stroke="#B6C649" stroke-width="8" x1="39.60580564851388" y1="140.71371887226042" x2="19.65295026525731" y2="163.4877242877943"/><line stroke="#B6C649" stroke-width="8" x1="95.378520781805" y1="227.5667203237891" x2="116.69762321558828" y2="204.91503570853837"/><line stroke="#B6C649" stroke-width="8" x1="95.378520781805" y1="227.5667203237891" x2="72.74889787987257" y2="246.9078652258121"/><line stroke="#B6C649" stroke-width="8" x1="95.378520781805" y1="227.5667203237891" x2="92.37733551858489" y2="197.21167538334691"/><line stroke="#B6C649" stroke-width="8" x1="95.378520781805" y1="227.5667203237891" x2="125.77175593449476" y2="228.1637923968859"/><line stroke="#B6C649" stroke-width="8" x1="-33.056628431744734" y1="-11.32409205971037" x2="-42.630397259501024" y2="17.672359099031773"/><line stroke="#D16666" stroke-width="8" x1="33.61093470554608" y1="195.4569147816712" x2="50.23435802618019" y2="170.08499675916696"/><line stroke="#D16666" stroke-width="8" x1="33.61093470554608" y1="195.4569147816712" x2="64.21470624924773" y2="196.90944245102133"/><line stroke="#D16666" stroke-width="8" x1="33.61093470554608" y1="195.4569147816712" x2="50.48204000576997" y2="220.8144228735412"/><line stroke="#D16666" stroke-width="8" x1="90.23420958224331" y1="-199.9934626165317" x2="115.18257585533328" y2="-216.43759770666216"/><line stroke="#D16666" stroke-width="8" x1="136.32505194115416" y1="75.95601225761285" x2="119.31868935982432" y2="50.9314419864973"/><line stroke="#D16666" stroke-width="8" x1="-165.68849435008144" y1="27.507404858428103" x2="-191.32864680457" y2="43.524693491075766"/><line stroke="#D16666" stroke-width="8" x1="110.8896180724001" y1="-25.86183626730145" x2="139.30857886591932" y2="-15.32128891923028"/><line stroke="#B6C649" stroke-width="8" x1="199.32544210645338" y1="9.783493895485547" x2="208.4952251291199" y2="38.468156657501446"/><line stroke="#B6C649" stroke-width="8" x1="199.32544210645338" y1="9.783493895485547" x2="169.67917878997528" y2="6.927317307881857"/><line stroke="#D16666" stroke-width="8" x1="150.17034028335823" y1="141.58401709691404" x2="157.5859172858376" y2="171.00572726155676"/><line stroke="#D16666" stroke-width="8" x1="57.93982668109459" y1="-107.91536310667394" x2="46.41427815745694" y2="-80.22311292459351"/><line stroke="#D16666" stroke-width="8" x1="57.93982668109459" y1="-107.91536310667394" x2="75.11317864447604" y2="-132.16346609554537"/><line stroke="#D16666" stroke-width="8" x1="114.7130848712965" y1="133.2815769830392" x2="127.25118251417149" y2="105.85080028084434"/><line stroke="#D16666" stroke-width="8" x1="114.7130848712965" y1="133.2815769830392" x2="130.49726468356087" y2="159.4484463059805"/><line stroke="#D16666" stroke-width="8" x1="223.50484724388917" y1="124.35311953319963" x2="233.56235781418286" y2="95.97000530734984"/><line stroke="#D16666" stroke-width="8" x1="-10.359136305627864" y1="-161.03651152658907" x2="-17.936358676640726" y2="-131.49438236581733"/><line stroke="#D16666" stroke-width="8" x1="-10.359136305627864" y1="-161.03651152658907" x2="-39.27795007558293" y2="-171.38453646838343"/><line stroke="#D16666" stroke-width="8" x1="-10.359136305627864" y1="-161.03651152658907" x2="17.2065755256034" y2="-149.2690956675338"/><line stroke="#D16666" stroke-width="8" x1="-10.359136305627864" y1="-161.03651152658907" x2="-37.652559927338054" y2="-146.2042399294112"/><line stroke="#D16666" stroke-width="8" x1="-164.24524750245857" y1="165.89356202291245" x2="-133.99255444592043" y2="166.8754314488006"/><line stroke="#D16666" stroke-width="8" x1="-164.24524750245857" y1="165.89356202291245" x2="-149.76441261534487" y2="193.50644695958144"/><line stroke="#D16666" stroke-width="8" x1="-164.24524750245857" y1="165.89356202291245" x2="-193.93979375712266" y2="164.94207207370187"/><line stroke="#B6C649" stroke-width="8" x1="-164.24524750245857" y1="165.89356202291245" x2="-176.11703298758485" y2="193.757464711425"/><line stroke="#B6C649" stroke-width="8" x1="-193.93979375712266" y1="164.94207207370187" x2="-216.38741184821217" y2="145.18152810243558"/><line stroke="#D16666" stroke-width="8" x1="-90.3766585119512" y1="54.83851297245198" x2="-67.65599577792119" y2="35.551903342562106"/><line stroke="#B6C649" stroke-width="8" x1="85.76299198541697" y1="-167.56535440983802" x2="113.70052948094215" y2="-179.3201840492686"/><line stroke="#B6C649" stroke-width="8" x1="78.65155683115945" y1="161.06064330215992" x2="107.7069734424947" y2="166.73614038166122"/><line stroke="#B6C649" stroke-width="8" x1="-239.1839268727134" y1="-85.42468418137621" x2="-250.5235394248093" y2="-57.59593023382751"/><line stroke="#B6C649" stroke-width="8" x1="232.12031168357584" y1="-113.20738381100443" x2="211.25847384525966" y2="-134.76186888360553"/><line stroke="#B6C649" stroke-width="8" x1="1.6096600245619266" y1="203.78338367129328" x2="16.73146048649605" y2="229.43539425217318"/><line stroke="#B6C649" stroke-width="8" x1="-61.18145258032941" y1="113.57791417690288" x2="-72.64264528122564" y2="85.84265786081329"/><line stroke="#B6C649" stroke-width="8" x1="-61.18145258032941" y1="113.57791417690288" x2="-31.102097704252465" y2="117.216529807945"/><line stroke="#B6C649" stroke-width="8" x1="-61.18145258032941" y1="113.57791417690288" x2="-49.08594494336636" y2="140.80873490608076"/><line stroke="#B6C649" stroke-width="8" x1="131.1361963185047" y1="-152.5000794279239" x2="130.41849268364297" y2="-121.83539225534216"/><line stroke="#B6C649" stroke-width="8" x1="18.57145091081267" y1="-28.298181688644462" x2="42.34251719027262" y2="-9.526026327503194"/><line stroke="#B6C649" stroke-width="8" x1="18.57145091081267" y1="-28.298181688644462" x2="11.122128799731565" y2="0.993022400555757"/><line stroke="#B6C649" stroke-width="8" x1="83.28401782738659" y1="35.48528719154948" x2="110.44048318563621" y2="21.83005374357314"/><line stroke="#B6C649" stroke-width="8" x1="105.7682935486773" y1="-56.811897876410015" x2="75.86198233936351" y2="-52.21097991722739"/><line stroke="#B6C649" stroke-width="8" x1="105.7682935486773" y1="-56.811897876410015" x2="82.39053421944371" y2="-77.46762803199928"/><line stroke="#B6C649" stroke-width="8" x1="105.7682935486773" y1="-56.811897876410015" x2="109.36919838482893" y2="-86.54729069810149"/><line stroke="#B6C649" stroke-width="8" x1="182.24483969936085" y1="145.1603995110129" x2="163.64376503219813" y2="121.13097365047638"/><line stroke="#B6C649" stroke-width="8" x1="182.24483969936085" y1="145.1603995110129" x2="210.75774532127713" y2="152.8497379533767"/><line stroke="#B6C649" stroke-width="8" x1="35.61196486742189" y1="-215.79720575925685" x2="65.20716788784031" y2="-212.50454899534313"/><line stroke="#B6C649" stroke-width="8" x1="35.61196486742189" y1="-215.79720575925685" x2="40.18588767565823" y2="-245.74291830416507"/><line stroke="#B6C649" stroke-width="8" x1="41.432214534650306" y1="252.49379397333556" x2="11.311495890815413" y2="256.6406625316095"/><line stroke="#B6C649" stroke-width="8" x1="-229.2085175870906" y1="-113.66580278538781" x2="-218.14914224454287" y2="-141.72927034470607"/><line stroke="#B6C649" stroke-width="8" x1="-153.36384089835656" y1="-28.206306634874913" x2="-126.78990240910095" y2="-13.515168521893555"/><line stroke="#B6C649" stroke-width="8" x1="-153.36384089835656" y1="-28.206306634874913" x2="-181.99490377587193" y2="-19.318543109456304"/><line stroke="#B6C649" stroke-width="8" x1="252.53406021563242" y1="36.65088367675425" x2="250.4415998100364" y2="66.90746092317458"/><line stroke="#B6C649" stroke-width="8" x1="110.44048318563621" y1="21.83005374357314" x2="139.73832449243721" y2="14.734568274186481"/><line stroke="#B6C649" stroke-width="8" x1="78.48277704496456" y1="60.582501909094624" x2="102.24566163707287" y2="79.71191707557696"/><line stroke="#B6C649" stroke-width="8" x1="-246.88172486387884" y1="16.822782608833112" x2="-260.956222671251" y2="-9.510782380937673"/><line stroke="#B6C649" stroke-width="8" x1="185.65864436653123" y1="-185.79568200618112" x2="195.1503411470009" y2="-156.73616959528562"/><line stroke="#B6C649" stroke-width="8" x1="139.73832449243721" y1="14.734568274186481" x2="149.45683639315007" y2="42.940060266332715"/><line stroke="#B6C649" stroke-width="8" x1="11.122128799731565" y1="0.993022400555757" x2="34.32458403834971" y2="20.55930247192271"/><line stroke="#B6C649" stroke-width="8" x1="11.122128799731565" y1="0.993022400555757" x2="-13.858817437718347" y2="17.957530879437435"/><line stroke="#B6C649" stroke-width="8" x1="195.1503411470009" y1="-156.73616959528562" x2="168.04030786270357" y2="-170.36673878178235"/><line stroke="#B6C649" stroke-width="8" x1="-63.55639818848491" y1="-1.453701841150438" x2="-92.42654944965705" y2="6.799561762847076"/><line stroke="#B6C649" stroke-width="8" x1="-74.53393324998767" y1="207.47318983980767" x2="-68.75118601916921" y2="175.7634021858104"/><line stroke="#B6C649" stroke-width="8" x1="-74.53393324998767" y1="207.47318983980767" x2="-83.5473873904634" y2="237.48235261460547"/><line stroke="#B6C649" stroke-width="8" x1="-74.53393324998767" y1="207.47318983980767" x2="-102.0973430244513" y2="190.07598906844748"/><line stroke="#B6C649" stroke-width="8" x1="-74.53393324998767" y1="207.47318983980767" x2="-42.9604657455022" y2="200.42664633929272"/><line stroke="#B6C649" stroke-width="8" x1="-74.53393324998767" y1="207.47318983980767" x2="-101.15765533516988" y2="225.40738329630406"/><line stroke="#B6C649" stroke-width="8" x1="-74.53393324998767" y1="207.47318983980767" x2="-88.1706829366249" y2="178.16390980932547"/><line stroke="#B6C649" stroke-width="8" x1="-74.53393324998767" y1="207.47318983980767" x2="-44.398346492176564" y2="218.18907868498005"/><line stroke="#B6C649" stroke-width="8" x1="-74.53393324998767" y1="207.47318983980767" x2="-107.01978474143303" y2="207.82290362770442"/><line stroke="#B6C649" stroke-width="8" x1="-74.53393324998767" y1="207.47318983980767" x2="-51.762895950576834" y2="184.49528810644395"/><line stroke="#B6C649" stroke-width="8" x1="-74.53393324998767" y1="207.47318983980767" x2="-55.086165772690954" y2="235.91382820549532"/><line stroke="#B6C649" stroke-width="8" x1="55.92196977780562" y1="-181.8050266496995" x2="25.72709156939325" y2="-182.17745583738113"/><line stroke="#B6C649" stroke-width="8" x1="55.92196977780562" y1="-181.8050266496995" x2="51.30791794659892" y2="-152.18144431947604"/><line stroke="#B6C649" stroke-width="8" x1="-55.086165772690954" y1="235.91382820549532" x2="-24.534529857125463" y2="244.8318101064182"/><line stroke="#B6C649" stroke-width="8" x1="-55.086165772690954" y1="235.91382820549532" x2="-50.353016642385946" y2="264.939365761169"/><line stroke="#B6C649" stroke-width="8" x1="-0.1828191920542863" y1="-113.84618102560755" x2="29.242418987409117" y2="-120.8059315794897"/><line stroke="#B6C649" stroke-width="8" x1="-0.1828191920542863" y1="-113.84618102560755" x2="18.05526091808812" y2="-90.17199592066049"/><line stroke="#D16666" stroke-width="8" x1="102.0639925368089" y1="-142.320644254259" x2="98.36307755783147" y2="-112.36014150796738"/><line stroke="#B6C649" stroke-width="8" x1="198.46634614248575" y1="108.90820103168016" x2="170.45524002941823" y2="97.40062125277085"/><line stroke="#D16666" stroke-width="8" x1="-10.902416336382672" y1="-58.793622722529136" x2="-13.98544649843544" y2="-29.19094229395771"/><line stroke="#D16666" stroke-width="8" x1="-10.902416336382672" y1="-58.793622722529136" x2="19.10510246446738" y2="-58.90020246524904"/><line stroke="#D16666" stroke-width="8" x1="-10.902416336382672" y1="-58.793622722529136" x2="-16.890003204621852" y2="-88.52504899883976"/><line stroke="#B6C649" stroke-width="8" x1="-151.52705954718732" y1="-106.46012183507592" x2="-128.1612102274485" y2="-128.67743906980326"/><line stroke="#B6C649" stroke-width="8" x1="-151.52705954718732" y1="-106.46012183507592" x2="-152.7729508639945" y2="-136.54925071935722"/><line stroke="#B6C649" stroke-width="8" x1="-128.1612102274485" y1="-128.67743906980326" x2="-101.07969218592507" y2="-143.08536158920978"/><line stroke="#B6C649" stroke-width="8" x1="232.85982834242262" y1="-17.462288946008517" x2="231.72308799873795" y2="12.76827940189375"/><line stroke="#B6C649" stroke-width="8" x1="232.85982834242262" y1="-17.462288946008517" x2="222.14119273203156" y2="-46.15346837689075"/><line stroke="#B6C649" stroke-width="8" x1="232.85982834242262" y1="-17.462288946008517" x2="258.43848636109146" y2="-1.4356547312368375"/><line stroke="#B6C649" stroke-width="8" x1="232.85982834242262" y1="-17.462288946008517" x2="202.64550064233396" y2="-19.165878733012605"/><line stroke="#B6C649" stroke-width="8" x1="232.85982834242262" y1="-17.462288946008517" x2="254.95161448033124" y2="-37.652430537371764"/><line stroke="#B6C649" stroke-width="8" x1="-53.14834784368188" y1="62.72393189073656" x2="-25.89293793935758" y2="50.26327906176409"/><line stroke="#B6C649" stroke-width="8" x1="-53.14834784368188" y1="62.72393189073656" x2="-32.32695720224947" y2="84.43796165993385"/><line stroke="#B6C649" stroke-width="8" x1="160.98865351180422" y1="-100.20142136674512" x2="181.91596116226884" y2="-78.82138535865525"/><line stroke="#D16666" stroke-width="8" x1="-117.99384097868324" y1="140.83439277748616" x2="-148.4781446155723" y2="137.65436594245688"/><line stroke="#D16666" stroke-width="8" x1="67.10993762929093" y1="-248.47397901027873" x2="95.46659527249261" y2="-238.31169903250978"/><line stroke="#D16666" stroke-width="8" x1="180.3594950773184" y1="43.953533481428956" x2="168.16848503608847" y2="71.3904960161753"/><line stroke="#D16666" stroke-width="8" x1="-241.94482115056093" y1="95.11542060096956" x2="-231.23939920073062" y2="67.43060125503607"/><line stroke="#D16666" stroke-width="8" x1="140.5396216470851" y1="-218.32860150240498" x2="146.30209240351255" y2="-189.32391445009003"/><line stroke="#D16666" stroke-width="8" x1="155.08535938340466" y1="201.8267350765319" x2="180.80720869875393" y2="184.72653113147067"/><line stroke="#D16666" stroke-width="8" x1="-136.98158774262427" y1="77.58407838508148" x2="-107.67358141374434" y2="85.29591249958477"/><line stroke="#D16666" stroke-width="8" x1="-136.98158774262427" y1="77.58407838508148" x2="-150.19626025281187" y2="50.113111713556314"/><line stroke="#D16666" stroke-width="8" x1="-136.98158774262427" y1="77.58407838508148" x2="-120.32362323645972" y2="52.17622587525513"/><line stroke="#D16666" stroke-width="8" x1="-136.98158774262427" y1="77.58407838508148" x2="-167.508316117345" y2="77.96703858078388"/><line stroke="#D16666" stroke-width="8" x1="-87.96393491683997" y1="-74.22271604584523" x2="-100.78558442580066" y2="-43.9125505324228"/><line stroke="#D16666" stroke-width="8" x1="-87.96393491683997" y1="-74.22271604584523" x2="-58.33187709602459" y2="-59.73905360136455"/><line stroke="#D16666" stroke-width="8" x1="-87.96393491683997" y1="-74.22271604584523" x2="-122.59960729528898" y2="-74.48031105807448"/><line stroke="#D16666" stroke-width="8" x1="-87.96393491683997" y1="-74.22271604584523" x2="-114.3790513676047" y2="-55.98918406688029"/><line stroke="#D16666" stroke-width="8" x1="-87.96393491683997" y1="-74.22271604584523" x2="-112.54096263966672" y2="-93.6105498960572"/><line stroke="#D16666" stroke-width="8" x1="-87.96393491683997" y1="-74.22271604584523" x2="-61.06684238543312" y2="-93.42834138401038"/><line stroke="#D16666" stroke-width="8" x1="-87.96393491683997" y1="-74.22271604584523" x2="-69.29226140488112" y2="-46.80128071732578"/><line stroke="#D16666" stroke-width="8" x1="-87.96393491683997" y1="-74.22271604584523" x2="-55.211239874754476" y2="-77.37450287765616"/><line stroke="#D16666" stroke-width="8" x1="-87.96393491683997" y1="-74.22271604584523" x2="-74.23690874159158" y2="-103.0733786123677"/><line stroke="#D16666" stroke-width="8" x1="-87.96393491683997" y1="-74.22271604584523" x2="-92.62564890055943" y2="-108.76713279297724"/><line stroke="#D16666" stroke-width="8" x1="-87.96393491683997" y1="-74.22271604584523" x2="-84.79387534507681" y2="-41.2157080162784"/><line stroke="#B6C649" stroke-width="8" x1="-122.59960729528898" y1="-74.48031105807448" x2="-149.98627960451324" y2="-60.33347575370843"/><line stroke="#B6C649" stroke-width="8" x1="-92.62564890055943" y1="-108.76713279297724" x2="-73.18771118745234" y2="-134.50930736430695"/><line stroke="#B6C649" stroke-width="8" x1="-187.79695617252997" y1="127.49215775188692" x2="-217.80518122785816" y2="119.95539312235805"/><line stroke="#B6C649" stroke-width="8" x1="-187.79630196249897" y1="-51.37352646925868" x2="-207.68775990006023" y2="-74.42305391031405"/></g><g stroke="#fff" stroke-width="1.5"><circle r="5" fill="#808080" cx="173.70757481593108" cy="-29.798465005631044"><title>HA634</title></circle><circle r="5" fill="#808080" cx="-115.01321526777197" cy="22.425315760177234"><title>KM745</title></circle><circle r="5" fill="#808080" cx="-118.90932588479642" cy="-192.028281568616"><title>OZ181</title></circle><circle r="5" fill="#808080" cx="-143.6452971821856" cy="-173.23591801134586"><title>UC868</title></circle><circle r="5" fill="#808080" cx="-122.5992684107393" cy="-222.9621866657323"><title>WH677</title></circle><circle r="5" fill="#808080" cx="22.919686643645516" cy="99.84491815633012"><title>JC848</title></circle><circle r="5" fill="#808080" cx="6.86440941314999" cy="73.20245599850186"><title>HZ885</title></circle><circle r="5" fill="#808080" cx="38.156849320384055" cy="73.58615085261565"><title>RT325</title></circle><circle r="5" fill="#808080" cx="-213.9074332724493" cy="9.815034364015895"><title>BH906</title></circle><circle r="5" fill="#808080" cx="72.5245381324937" cy="-22.83801662944506"><title>AN177</title></circle><circle r="5" fill="#808080" cx="93.8218141148783" cy="-1.8179796127030783"><title>QJ536</title></circle><circle r="5" fill="#808080" cx="-224.22945300469547" cy="40.365604166681905"><title>PB196</title></circle><circle r="5" fill="#808080" cx="156.52806661517002" cy="-141.8708575199539"><title>ON966</title></circle><circle r="5" fill="#808080" cx="-18.780304786622267" cy="149.42103916988506"><title>IW959</title></circle><circle r="5" fill="#808080" cx="-28.331749360285365" cy="-220.99118039277482"><title>CT231</title></circle><circle r="5" fill="#808080" cx="-25.467593669992542" cy="-252.61540034548977"><title>LY519</title></circle><circle r="5" fill="#808080" cx="-86.42722529189355" cy="139.74706950691427"><title>FY778</title></circle><circle r="5" fill="#808080" cx="-187.52241944458135" cy="-130.53340496497003"><title>QS379</title></circle><circle r="5" fill="#808080" cx="-197.52871258042012" cy="-102.48713596636861"><title>SY772</title></circle><circle r="5" fill="#808080" cx="200.18045753758673" cy="76.21857753419978"><title>IT343</title></circle><circle r="5" fill="#808080" cx="-133.35891129591988" cy="109.59949631549362"><title>ZU277</title></circle><circle r="5" fill="#808080" cx="226.85163654348128" cy="-82.86063767990296"><title>VD234</title></circle><circle r="5" fill="#808080" cx="-197.3544655684781" cy="71.10534870330548"><title>SE116</title></circle><circle r="5" fill="#808080" cx="151.40992095831498" cy="-63.51875000277521"><title>CB351</title></circle><circle r="5" fill="#808080" cx="73.75660141586276" cy="133.5698634360224"><title>XP609</title></circle><circle r="5" fill="#808080" cx="-210.84736711312416" cy="-19.71349264841327"><title>FI685</title></circle><circle r="5" fill="#808080" cx="39.60580564851388" cy="140.71371887226042"><title>DO502</title></circle><circle r="5" fill="#808080" cx="95.378520781805" cy="227.5667203237891"><title>LI717</title></circle><circle r="5" fill="#808080" cx="-33.056628431744734" cy="-11.32409205971037"><title>NQ103</title></circle><circle r="5" fill="#808080" cx="33.61093470554608" cy="195.4569147816712"><title>TO761</title></circle><circle r="5" fill="#808080" cx="90.23420958224331" cy="-199.9934626165317"><title>XL921</title></circle><circle r="5" fill="#808080" cx="136.32505194115416" cy="75.95601225761285"><title>FB819</title></circle><circle r="5" fill="#808080" cx="-165.68849435008144" cy="27.507404858428103"><title>ON148</title></circle><circle r="5" fill="#808080" cx="110.8896180724001" cy="-25.86183626730145"><title>YJ320</title></circle><circle r="5" fill="#808080" cx="199.32544210645338" cy="9.783493895485547"><title>ST649</title></circle><circle r="5" fill="#808080" cx="150.17034028335823" cy="141.58401709691404"><title>QM627</title></circle><circle r="5" fill="#808080" cx="57.93982668109459" cy="-107.91536310667394"><title>GF785</title></circle><circle r="5" fill="#808080" cx="114.7130848712965" cy="133.2815769830392"><title>GR120</title></circle><circle r="5" fill="#808080" cx="223.50484724388917" cy="124.35311953319963"><title>GO218</title></circle><circle r="5" fill="#808080" cx="-10.359136305627864" cy="-161.03651152658907"><title>TR290</title></circle><circle r="5" fill="#808080" cx="-164.24524750245857" cy="165.89356202291245"><title>KQ310</title></circle><circle r="5" fill="#808080" cx="-193.93979375712266" cy="164.94207207370187"><title>PG781</title></circle><circle r="5" fill="#808080" cx="-90.3766585119512" cy="54.83851297245198"><title>KU419</title></circle><circle r="5" fill="#808080" cx="85.76299198541697" cy="-167.56535440983802"><title>CH521</title></circle><circle r="5" fill="#808080" cx="78.65155683115945" cy="161.06064330215992"><title>IW852</title></circle><circle r="5" fill="#808080" cx="-239.1839268727134" cy="-85.42468418137621"><title>WP288</title></circle><circle r="5" fill="#808080" cx="232.12031168357584" cy="-113.20738381100443"><title>RQ344</title></circle><circle r="5" fill="#808080" cx="1.6096600245619266" cy="203.78338367129328"><title>SW913</title></circle><circle r="5" fill="#808080" cx="-61.18145258032941" cy="113.57791417690288"><title>FT538</title></circle><circle r="5" fill="#808080" cx="131.1361963185047" cy="-152.5000794279239"><title>BA501</title></circle><circle r="5" fill="#808080" cx="18.57145091081267" cy="-28.298181688644462"><title>EN721</title></circle><circle r="5" fill="#808080" cx="83.28401782738659" cy="35.48528719154948"><title>CL992</title></circle><circle r="5" fill="#808080" cx="105.7682935486773" cy="-56.811897876410015"><title>GR516</title></circle><circle r="5" fill="#808080" cx="182.24483969936085" cy="145.1603995110129"><title>KE138</title></circle><circle r="5" fill="#808080" cx="35.61196486742189" cy="-215.79720575925685"><title>CN769</title></circle><circle r="5" fill="#808080" cx="41.432214534650306" cy="252.49379397333556"><title>IA113</title></circle><circle r="5" fill="#808080" cx="-229.2085175870906" cy="-113.66580278538781"><title>BD289</title></circle><circle r="5" fill="#808080" cx="-153.36384089835656" cy="-28.206306634874913"><title>DQ335</title></circle><circle r="5" fill="#808080" cx="252.53406021563242" cy="36.65088367675425"><title>QQ439</title></circle><circle r="5" fill="#808080" cx="110.44048318563621" cy="21.83005374357314"><title>JF439</title></circle><circle r="5" fill="#808080" cx="78.48277704496456" cy="60.582501909094624"><title>LD489</title></circle><circle r="5" fill="#808080" cx="-246.88172486387884" cy="16.822782608833112"><title>CF543</title></circle><circle r="5" fill="#808080" cx="185.65864436653123" cy="-185.79568200618112"><title>FT869</title></circle><circle r="5" fill="#808080" cx="139.73832449243721" cy="14.734568274186481"><title>RH657</title></circle><circle r="5" fill="#808080" cx="11.122128799731565" cy="0.993022400555757"><title>PW898</title></circle><circle r="5" fill="#808080" cx="195.1503411470009" cy="-156.73616959528562"><title>PB638</title></circle><circle r="5" fill="#808080" cx="-63.55639818848491" cy="-1.453701841150438"><title>RQ982</title></circle><circle r="5" fill="#808080" cx="-74.53393324998767" cy="207.47318983980767"><title>IQ990</title></circle><circle r="5" fill="#808080" cx="55.92196977780562" cy="-181.8050266496995"><title>WF998</title></circle><circle r="5" fill="#808080" cx="-55.086165772690954" cy="235.91382820549532"><title>KJ216</title></circle><circle r="5" fill="#808080" cx="-0.1828191920542863" cy="-113.84618102560755"><title>XB594</title></circle><circle r="5" fill="#808080" cx="102.0639925368089" cy="-142.320644254259"><title>AO354</title></circle><circle r="5" fill="#808080" cx="198.46634614248575" cy="108.90820103168016"><title>VK826</title></circle><circle r="5" fill="#808080" cx="-10.902416336382672" cy="-58.793622722529136"><title>SE930</title></circle><circle r="5" fill="#808080" cx="-151.52705954718732" cy="-106.46012183507592"><title>ZE674</title></circle><circle r="5" fill="#808080" cx="-128.1612102274485" cy="-128.67743906980326"><title>AL209</title></circle><circle r="5" fill="#808080" cx="232.85982834242262" cy="-17.462288946008517"><title>GJ377</title></circle><circle r="5" fill="#808080" cx="-53.14834784368188" cy="62.72393189073656"><title>YO171</title></circle><circle r="5" fill="#808080" cx="160.98865351180422" cy="-100.20142136674512"><title>FP269</title></circle><circle r="5" fill="#808080" cx="-117.99384097868324" cy="140.83439277748616"><title>ER691</title></circle><circle r="5" fill="#808080" cx="67.10993762929093" cy="-248.47397901027873"><title>GU402</title></circle><circle r="5" fill="#808080" cx="180.3594950773184" cy="43.953533481428956"><title>SD440</title></circle><circle r="5" fill="#808080" cx="-241.94482115056093" cy="95.11542060096956"><title>FQ437</title></circle><circle r="5" fill="#808080" cx="140.5396216470851" cy="-218.32860150240498"><title>VZ336</title></circle><circle r="5" fill="#808080" cx="155.08535938340466" cy="201.8267350765319"><title>OD267</title></circle><circle r="5" fill="#808080" cx="-136.98158774262427" cy="77.58407838508148"><title>HX316</title></circle><circle r="5" fill="#808080" cx="-87.96393491683997" cy="-74.22271604584523"><title>CH001</title></circle><circle r="5" fill="#808080" cx="-122.59960729528898" cy="-74.48031105807448"><title>PB479</title></circle><circle r="5" fill="#808080" cx="-92.62564890055943" cy="-108.76713279297724"><title>LY189</title></circle><circle r="5" fill="#808080" cx="-187.79695617252997" cy="127.49215775188692"><title>BA648</title></circle><circle r="5" fill="#808080" cx="-187.79630196249897" cy="-51.37352646925868"><title>JS473</title></circle><circle r="5" fill="#808080" cx="192.1447983632228" cy="-53.73082050261097"><title>IG290</title></circle><circle r="5" fill="#808080" cx="145.22691617012183" cy="-40.77388756979555"><title>GP180</title></circle><circle r="5" fill="#808080" cx="-142.25215303784367" cy="9.182563609571623"><title>XV777</title></circle><circle r="5" fill="#808080" cx="-94.54152879976847" cy="-210.77149765814266"><title>UY252</title></circle><circle r="5" fill="#808080" cx="-108.30347007451542" cy="-164.13398162612847"><title>MW141</title></circle><circle r="5" fill="#808080" cx="-146.01950741298535" cy="-205.724560846243"><title>AR462</title></circle><circle r="5" fill="#808080" cx="-88.61131600865163" cy="-184.55858173728924"><title>XC636</title></circle><circle r="5" fill="#808080" cx="-169.53983100493312" cy="-190.26381956849204"><title>ZJ935</title></circle><circle r="5" fill="#808080" cx="-96.82379498322051" cy="-239.7945274528405"><title>IP573</title></circle><circle r="5" fill="#808080" cx="11.863777566468844" cy="128.01395785742974"><title>MP917</title></circle><circle r="5" fill="#808080" cx="51.55818685830854" cy="109.92413901045364"><title>YX864</title></circle><circle r="5" fill="#808080" cx="2.97682570632583" cy="43.01219275548485"><title>IS758</title></circle><circle r="5" fill="#808080" cx="28.17313922362775" cy="50.483806625779074"><title>CR226</title></circle><circle r="5" fill="#808080" cx="-6.75434838310757" cy="100.03675557331363"><title>JH885</title></circle><circle r="5" fill="#808080" cx="66.37799055098732" cy="84.35548850239513"><title>OC739</title></circle><circle r="5" fill="#808080" cx="-183.91627491354913" cy="8.261639061351454"><title>UW109</title></circle><circle r="5" fill="#808080" cx="48.992373368919495" cy="-42.2685581430159"><title>ZG263</title></circle><circle r="5" fill="#808080" cx="66.96255041090973" cy="12.83756546762723"><title>WJ381</title></circle><circle r="5" fill="#808080" cx="-254.02478580103192" cy="46.429917526520335"><title>QC901</title></circle><circle r="5" fill="#808080" cx="180.08171158659235" cy="-123.3500483011265"><title>UX253</title></circle><circle r="5" fill="#808080" cx="-6.8459358054542" cy="176.8323262358493"><title>EF898</title></circle><circle r="5" fill="#808080" cx="-58.73149691423207" cy="-226.06038338734044"><title>WU531</title></circle><circle r="5" fill="#808080" cx="0.5135961047360735" cy="-209.51592330603867"><title>NO557</title></circle><circle r="5" fill="#808080" cx="-50.96155584967004" cy="-199.84468676268807"><title>UE543</title></circle><circle r="5" fill="#808080" cx="0.05813714217800353" cy="-233.14008896906995"><title>YC852</title></circle><circle r="5" fill="#808080" cx="-17.77540641083239" cy="-192.02959648465"><title>ID404</title></circle><circle r="5" fill="#808080" cx="-56.07054772342812" cy="-252.68779728405306"><title>ML216</title></circle><circle r="5" fill="#808080" cx="4.737244193446999" cy="-259.38559929462184"><title>QQ131</title></circle><circle r="5" fill="#808080" cx="-97.6937365845681" cy="112.06463828105585"><title>ZZ198</title></circle><circle r="5" fill="#808080" cx="-196.00069769313188" cy="-160.27395294787573"><title>YS610</title></circle><circle r="5" fill="#808080" cx="-171.25696329038047" cy="-156.29447191844037"><title>GH467</title></circle><circle r="5" fill="#808080" cx="-175.53925807750255" cy="-81.88127082455642"><title>HB571</title></circle><circle r="5" fill="#808080" cx="225.10122661318525" cy="60.04148780273998"><title>ZP938</title></circle><circle r="5" fill="#808080" cx="-163.60249005616035" cy="107.54812509461397"><title>TY704</title></circle><circle r="5" fill="#808080" cx="251.18624937092068" cy="-66.39023082545589"><title>CD925</title></circle><circle r="5" fill="#808080" cx="202.4691388991821" cy="-99.9947481739959"><title>GG121</title></circle><circle r="5" fill="#808080" cx="-205.07627644730673" cy="99.32584444536404"><title>OJ809</title></circle><circle r="5" fill="#808080" cx="137.34286234129843" cy="-89.35269151770767"><title>NK361</title></circle><circle r="5" fill="#808080" cx="92.93943649256981" cy="110.73305432070265"><title>OE677</title></circle><circle r="5" fill="#808080" cx="-240.5818478128207" cy="-24.512474233944616"><title>JD955</title></circle><circle r="5" fill="#808080" cx="-221.19924572988353" cy="-47.787054539374296"><title>OD818</title></circle><circle r="5" fill="#808080" cx="19.65295026525731" cy="163.4877242877943"><title>AZ415</title></circle><circle r="5" fill="#808080" cx="116.69762321558828" cy="204.91503570853837"><title>MT734</title></circle><circle r="5" fill="#808080" cx="72.74889787987257" cy="246.9078652258121"><title>SU254</title></circle><circle r="5" fill="#808080" cx="92.37733551858489" cy="197.21167538334691"><title>GI237</title></circle><circle r="5" fill="#808080" cx="125.77175593449476" cy="228.1637923968859"><title>BS479</title></circle><circle r="5" fill="#808080" cx="-42.630397259501024" cy="17.672359099031773"><title>LF637</title></circle><circle r="5" fill="#808080" cx="50.23435802618019" cy="170.08499675916696"><title>RP349</title></circle><circle r="5" fill="#808080" cx="64.21470624924773" cy="196.90944245102133"><title>YN141</title></circle><circle r="5" fill="#808080" cx="50.48204000576997" cy="220.8144228735412"><title>MF760</title></circle><circle r="5" fill="#808080" cx="115.18257585533328" cy="-216.43759770666216"><title>SF241</title></circle><circle r="5" fill="#808080" cx="119.31868935982432" cy="50.9314419864973"><title>PY661</title></circle><circle r="5" fill="#808080" cx="-191.32864680457" cy="43.524693491075766"><title>NK138</title></circle><circle r="5" fill="#808080" cx="139.30857886591932" cy="-15.32128891923028"><title>WA731</title></circle><circle r="5" fill="#808080" cx="208.4952251291199" cy="38.468156657501446"><title>TQ579</title></circle><circle r="5" fill="#808080" cx="169.67917878997528" cy="6.927317307881857"><title>GR454</title></circle><circle r="5" fill="#808080" cx="157.5859172858376" cy="171.00572726155676"><title>GE298</title></circle><circle r="5" fill="#808080" cx="46.41427815745694" cy="-80.22311292459351"><title>KA942</title></circle><circle r="5" fill="#808080" cx="75.11317864447604" cy="-132.16346609554537"><title>MK800</title></circle><circle r="5" fill="#808080" cx="127.25118251417149" cy="105.85080028084434"><title>KB772</title></circle><circle r="5" fill="#808080" cx="130.49726468356087" cy="159.4484463059805"><title>FT679</title></circle><circle r="5" fill="#808080" cx="233.56235781418286" cy="95.97000530734984"><title>QJ495</title></circle><circle r="5" fill="#808080" cx="-17.936358676640726" cy="-131.49438236581733"><title>TN949</title></circle><circle r="5" fill="#808080" cx="-39.27795007558293" cy="-171.38453646838343"><title>YU725</title></circle><circle r="5" fill="#808080" cx="17.2065755256034" cy="-149.2690956675338"><title>YQ341</title></circle><circle r="5" fill="#808080" cx="-37.652559927338054" cy="-146.2042399294112"><title>CU979</title></circle><circle r="5" fill="#808080" cx="-133.99255444592043" cy="166.8754314488006"><title>RO194</title></circle><circle r="5" fill="#808080" cx="-149.76441261534487" cy="193.50644695958144"><title>BA477</title></circle><circle r="5" fill="#808080" cx="-176.11703298758485" cy="193.757464711425"><title>WM391</title></circle><circle r="5" fill="#808080" cx="-216.38741184821217" cy="145.18152810243558"><title>FX694</title></circle><circle r="5" fill="#808080" cx="-67.65599577792119" cy="35.551903342562106"><title>AK199</title></circle><circle r="5" fill="#808080" cx="113.70052948094215" cy="-179.3201840492686"><title>EC101</title></circle><circle r="5" fill="#808080" cx="107.7069734424947" cy="166.73614038166122"><title>XB825</title></circle><circle r="5" fill="#808080" cx="-250.5235394248093" cy="-57.59593023382751"><title>VT858</title></circle><circle r="5" fill="#808080" cx="211.25847384525966" cy="-134.76186888360553"><title>NZ740</title></circle><circle r="5" fill="#808080" cx="16.73146048649605" cy="229.43539425217318"><title>PQ411</title></circle><circle r="5" fill="#808080" cx="-72.64264528122564" cy="85.84265786081329"><title>MA489</title></circle><circle r="5" fill="#808080" cx="-31.102097704252465" cy="117.216529807945"><title>VV705</title></circle><circle r="5" fill="#808080" cx="-49.08594494336636" cy="140.80873490608076"><title>NX270</title></circle><circle r="5" fill="#808080" cx="130.41849268364297" cy="-121.83539225534216"><title>RK889</title></circle><circle r="5" fill="#808080" cx="42.34251719027262" cy="-9.526026327503194"><title>VL444</title></circle><circle r="5" fill="#808080" cx="75.86198233936351" cy="-52.21097991722739"><title>YO672</title></circle><circle r="5" fill="#808080" cx="82.39053421944371" cy="-77.46762803199928"><title>BL714</title></circle><circle r="5" fill="#808080" cx="109.36919838482893" cy="-86.54729069810149"><title>NP321</title></circle><circle r="5" fill="#808080" cx="163.64376503219813" cy="121.13097365047638"><title>LR356</title></circle><circle r="5" fill="#808080" cx="210.75774532127713" cy="152.8497379533767"><title>PS273</title></circle><circle r="5" fill="#808080" cx="65.20716788784031" cy="-212.50454899534313"><title>ZU913</title></circle><circle r="5" fill="#808080" cx="40.18588767565823" cy="-245.74291830416507"><title>VG381</title></circle><circle r="5" fill="#808080" cx="11.311495890815413" cy="256.6406625316095"><title>FW741</title></circle><circle r="5" fill="#808080" cx="-218.14914224454287" cy="-141.72927034470607"><title>GA490</title></circle><circle r="5" fill="#808080" cx="-126.78990240910095" cy="-13.515168521893555"><title>MA797</title></circle><circle r="5" fill="#808080" cx="-181.99490377587193" cy="-19.318543109456304"><title>TI391</title></circle><circle r="5" fill="#808080" cx="250.4415998100364" cy="66.90746092317458"><title>VZ664</title></circle><circle r="5" fill="#808080" cx="102.24566163707287" cy="79.71191707557696"><title>WX338</title></circle><circle r="5" fill="#808080" cx="-260.956222671251" cy="-9.510782380937673"><title>TR873</title></circle><circle r="5" fill="#808080" cx="149.45683639315007" cy="42.940060266332715"><title>ST977</title></circle><circle r="5" fill="#808080" cx="34.32458403834971" cy="20.55930247192271"><title>GH602</title></circle><circle r="5" fill="#808080" cx="-13.858817437718347" cy="17.957530879437435"><title>OC631</title></circle><circle r="5" fill="#808080" cx="168.04030786270357" cy="-170.36673878178235"><title>WR662</title></circle><circle r="5" fill="#808080" cx="-92.42654944965705" cy="6.799561762847076"><title>TJ223</title></circle><circle r="5" fill="#808080" cx="-68.75118601916921" cy="175.7634021858104"><title>RT165</title></circle><circle r="5" fill="#808080" cx="-83.5473873904634" cy="237.48235261460547"><title>LH430</title></circle><circle r="5" fill="#808080" cx="-102.0973430244513" cy="190.07598906844748"><title>BI720</title></circle><circle r="5" fill="#808080" cx="-42.9604657455022" cy="200.42664633929272"><title>BI957</title></circle><circle r="5" fill="#808080" cx="-101.15765533516988" cy="225.40738329630406"><title>BH553</title></circle><circle r="5" fill="#808080" cx="-88.1706829366249" cy="178.16390980932547"><title>LB307</title></circle><circle r="5" fill="#808080" cx="-44.398346492176564" cy="218.18907868498005"><title>ZK279</title></circle><circle r="5" fill="#808080" cx="-107.01978474143303" cy="207.82290362770442"><title>FV483</title></circle><circle r="5" fill="#808080" cx="-51.762895950576834" cy="184.49528810644395"><title>PV664</title></circle><circle r="5" fill="#808080" cx="25.72709156939325" cy="-182.17745583738113"><title>YR694</title></circle><circle r="5" fill="#808080" cx="51.30791794659892" cy="-152.18144431947604"><title>KM334</title></circle><circle r="5" fill="#808080" cx="-24.534529857125463" cy="244.8318101064182"><title>CM854</title></circle><circle r="5" fill="#808080" cx="-50.353016642385946" cy="264.939365761169"><title>LK483</title></circle><circle r="5" fill="#808080" cx="29.242418987409117" cy="-120.8059315794897"><title>MC155</title></circle><circle r="5" fill="#808080" cx="18.05526091808812" cy="-90.17199592066049"><title>CF980</title></circle><circle r="5" fill="#808080" cx="98.36307755783147" cy="-112.36014150796738"><title>MW828</title></circle><circle r="5" fill="#808080" cx="170.45524002941823" cy="97.40062125277085"><title>MH463</title></circle><circle r="5" fill="#808080" cx="-13.98544649843544" cy="-29.19094229395771"><title>QW737</title></circle><circle r="5" fill="#808080" cx="19.10510246446738" cy="-58.90020246524904"><title>GQ457</title></circle><circle r="5" fill="#808080" cx="-16.890003204621852" cy="-88.52504899883976"><title>QG478</title></circle><circle r="5" fill="#808080" cx="-152.7729508639945" cy="-136.54925071935722"><title>MH914</title></circle><circle r="5" fill="#808080" cx="-101.07969218592507" cy="-143.08536158920978"><title>OE917</title></circle><circle r="5" fill="#808080" cx="231.72308799873795" cy="12.76827940189375"><title>TM821</title></circle><circle r="5" fill="#808080" cx="222.14119273203156" cy="-46.15346837689075"><title>GN367</title></circle><circle r="5" fill="#808080" cx="258.43848636109146" cy="-1.4356547312368375"><title>RN428</title></circle><circle r="5" fill="#808080" cx="202.64550064233396" cy="-19.165878733012605"><title>FS489</title></circle><circle r="5" fill="#808080" cx="254.95161448033124" cy="-37.652430537371764"><title>WS317</title></circle><circle r="5" fill="#808080" cx="-25.89293793935758" cy="50.26327906176409"><title>ZN918</title></circle><circle r="5" fill="#808080" cx="-32.32695720224947" cy="84.43796165993385"><title>VM767</title></circle><circle r="5" fill="#808080" cx="181.91596116226884" cy="-78.82138535865525"><title>FG336</title></circle><circle r="5" fill="#808080" cx="-148.4781446155723" cy="137.65436594245688"><title>FO795</title></circle><circle r="5" fill="#808080" cx="95.46659527249261" cy="-238.31169903250978"><title>FT281</title></circle><circle r="5" fill="#808080" cx="168.16848503608847" cy="71.3904960161753"><title>ZF257</title></circle><circle r="5" fill="#808080" cx="-231.23939920073062" cy="67.43060125503607"><title>CC647</title></circle><circle r="5" fill="#808080" cx="146.30209240351255" cy="-189.32391445009003"><title>QH864</title></circle><circle r="5" fill="#808080" cx="180.80720869875393" cy="184.72653113147067"><title>QP938</title></circle><circle r="5" fill="#808080" cx="-107.67358141374434" cy="85.29591249958477"><title>AT823</title></circle><circle r="5" fill="#808080" cx="-150.19626025281187" cy="50.113111713556314"><title>TZ315</title></circle><circle r="5" fill="#808080" cx="-120.32362323645972" cy="52.17622587525513"><title>WB911</title></circle><circle r="5" fill="#808080" cx="-167.508316117345" cy="77.96703858078388"><title>ML189</title></circle><circle r="5" fill="#808080" cx="-100.78558442580066" cy="-43.9125505324228"><title>ZQ499</title></circle><circle r="5" fill="#808080" cx="-58.33187709602459" cy="-59.73905360136455"><title>YU251</title></circle><circle r="5" fill="#808080" cx="-114.3790513676047" cy="-55.98918406688029"><title>LH171</title></circle><circle r="5" fill="#808080" cx="-112.54096263966672" cy="-93.6105498960572"><title>LL232</title></circle><circle r="5" fill="#808080" cx="-61.06684238543312" cy="-93.42834138401038"><title>RQ491</title></circle><circle r="5" fill="#808080" cx="-69.29226140488112" cy="-46.80128071732578"><title>IY775</title></circle><circle r="5" fill="#808080" cx="-55.211239874754476" cy="-77.37450287765616"><title>JM835</title></circle><circle r="5" fill="#808080" cx="-74.23690874159158" cy="-103.0733786123677"><title>JB487</title></circle><circle r="5" fill="#808080" cx="-84.79387534507681" cy="-41.2157080162784"><title>FA842</title></circle><circle r="5" fill="#808080" cx="-149.98627960451324" cy="-60.33347575370843"><title>JS787</title></circle><circle r="5" fill="#808080" cx="-73.18771118745234" cy="-134.50930736430695"><title>AN966</title></circle><circle r="5" fill="#808080" cx="-217.80518122785816" cy="119.95539312235805"><title>FM143</title></circle><circle r="5" fill="#808080" cx="-207.68775990006023" cy="-74.42305391031405"><title>BN442</title></circle></g><g><rect x="-350" y="-300" width="32" height="32" fill="#D16666"/><rect x="-350" y="-257.3333333333333" width="32" height="32" fill="#B6C649"/></g><g><text x="-425" y="-280" font-family="Helvetica Neue, sans-serif" font-size="16" fill="black">imported</text><text x="-425" y="-237.33333333333334" font-family="Helvetica Neue, sans-serif" font-size="16" fill="black">local</text></g></svg>